<?xml version="1.0" encoding="UTF-8"?>
<svg xmlns="http://www.w3.org/2000/svg" xmlns:xlink="http://www.w3.org/1999/xlink" width="206.79pt" height="163.09pt" viewBox="0 0 206.79 163.09">
<defs>
<g>
<g id="glyph-0-0">
<path d="M 1.578125 -2.125 L 0.21875 -2.125 C 0.207031 -1.726562 0.273438 -1.382812 0.421875 -1.09375 C 0.578125 -0.8125 0.78125 -0.578125 1.03125 -0.390625 C 1.28125 -0.203125 1.570312 -0.0664062 1.90625 0.015625 C 2.238281 0.0976562 2.582031 0.140625 2.9375 0.140625 C 3.363281 0.140625 3.742188 0.09375 4.078125 0 C 4.410156 -0.101562 4.6875 -0.242188 4.90625 -0.421875 C 5.132812 -0.609375 5.304688 -0.828125 5.421875 -1.078125 C 5.535156 -1.328125 5.59375 -1.597656 5.59375 -1.890625 C 5.59375 -2.253906 5.515625 -2.550781 5.359375 -2.78125 C 5.203125 -3.007812 5.019531 -3.191406 4.8125 -3.328125 C 4.601562 -3.460938 4.394531 -3.5625 4.1875 -3.625 C 3.976562 -3.6875 3.8125 -3.726562 3.6875 -3.75 C 3.289062 -3.851562 2.96875 -3.9375 2.71875 -4 C 2.46875 -4.070312 2.273438 -4.140625 2.140625 -4.203125 C 2.003906 -4.265625 1.910156 -4.332031 1.859375 -4.40625 C 1.804688 -4.488281 1.78125 -4.59375 1.78125 -4.71875 C 1.78125 -4.851562 1.8125 -4.960938 1.875 -5.046875 C 1.9375 -5.140625 2.015625 -5.21875 2.109375 -5.28125 C 2.203125 -5.34375 2.300781 -5.382812 2.40625 -5.40625 C 2.519531 -5.425781 2.632812 -5.4375 2.75 -5.4375 C 2.925781 -5.4375 3.085938 -5.421875 3.234375 -5.390625 C 3.378906 -5.367188 3.507812 -5.320312 3.625 -5.25 C 3.738281 -5.175781 3.828125 -5.078125 3.890625 -4.953125 C 3.960938 -4.828125 4.003906 -4.671875 4.015625 -4.484375 L 5.375 -4.484375 C 5.375 -4.847656 5.300781 -5.160156 5.15625 -5.421875 C 5.019531 -5.679688 4.832031 -5.894531 4.59375 -6.0625 C 4.351562 -6.226562 4.078125 -6.347656 3.765625 -6.421875 C 3.460938 -6.492188 3.144531 -6.53125 2.8125 -6.53125 C 2.53125 -6.53125 2.242188 -6.488281 1.953125 -6.40625 C 1.671875 -6.332031 1.414062 -6.210938 1.1875 -6.046875 C 0.957031 -5.890625 0.769531 -5.691406 0.625 -5.453125 C 0.488281 -5.210938 0.421875 -4.929688 0.421875 -4.609375 C 0.421875 -4.316406 0.476562 -4.066406 0.59375 -3.859375 C 0.707031 -3.648438 0.851562 -3.476562 1.03125 -3.34375 C 1.207031 -3.207031 1.40625 -3.09375 1.625 -3 C 1.851562 -2.914062 2.085938 -2.84375 2.328125 -2.78125 C 2.566406 -2.71875 2.796875 -2.660156 3.015625 -2.609375 C 3.242188 -2.554688 3.445312 -2.492188 3.625 -2.421875 C 3.800781 -2.347656 3.945312 -2.257812 4.0625 -2.15625 C 4.175781 -2.050781 4.234375 -1.910156 4.234375 -1.734375 C 4.234375 -1.578125 4.191406 -1.445312 4.109375 -1.34375 C 4.023438 -1.238281 3.921875 -1.15625 3.796875 -1.09375 C 3.671875 -1.03125 3.535156 -0.988281 3.390625 -0.96875 C 3.242188 -0.945312 3.109375 -0.9375 2.984375 -0.9375 C 2.796875 -0.9375 2.613281 -0.957031 2.4375 -1 C 2.269531 -1.050781 2.125 -1.117188 2 -1.203125 C 1.875 -1.296875 1.769531 -1.414062 1.6875 -1.5625 C 1.613281 -1.71875 1.578125 -1.90625 1.578125 -2.125 Z M 1.578125 -2.125 "/>
</g>
<g id="glyph-0-1">
<path d="M 5.765625 0 L 7.21875 -4.625 L 5.921875 -4.625 L 5.0625 -1.5 L 5.046875 -1.5 L 4.265625 -4.625 L 3.03125 -4.625 L 2.265625 -1.484375 L 2.25 -1.484375 L 1.390625 -4.625 L 0.046875 -4.625 L 1.515625 0 L 2.828125 0 L 3.625 -3.09375 L 3.640625 -3.09375 L 4.453125 0 Z M 5.765625 0 "/>
</g>
<g id="glyph-0-2">
<path d="M 1.78125 -5.328125 L 1.78125 -6.375 L 0.515625 -6.375 L 0.515625 -5.328125 Z M 0.515625 -4.625 L 0.515625 0 L 1.78125 0 L 1.78125 -4.625 Z M 0.515625 -4.625 "/>
</g>
<g id="glyph-0-3">
<path d="M 2.09375 -4.625 L 2.09375 -6 L 0.828125 -6 L 0.828125 -4.625 L 0.046875 -4.625 L 0.046875 -3.765625 L 0.828125 -3.765625 L 0.828125 -1.046875 C 0.828125 -0.816406 0.863281 -0.628906 0.9375 -0.484375 C 1.007812 -0.335938 1.113281 -0.222656 1.25 -0.140625 C 1.382812 -0.0664062 1.539062 -0.0195312 1.71875 0 C 1.894531 0.03125 2.082031 0.046875 2.28125 0.046875 C 2.40625 0.046875 2.53125 0.0390625 2.65625 0.03125 C 2.789062 0.03125 2.910156 0.0195312 3.015625 0 L 3.015625 -0.984375 C 2.960938 -0.972656 2.898438 -0.960938 2.828125 -0.953125 C 2.765625 -0.953125 2.695312 -0.953125 2.625 -0.953125 C 2.414062 -0.953125 2.273438 -0.984375 2.203125 -1.046875 C 2.128906 -1.117188 2.09375 -1.265625 2.09375 -1.484375 L 2.09375 -3.765625 L 3.015625 -3.765625 L 3.015625 -4.625 Z M 2.09375 -4.625 "/>
</g>
<g id="glyph-0-4">
<path d="M 3.625 -3 L 4.875 -3 C 4.851562 -3.289062 4.78125 -3.546875 4.65625 -3.765625 C 4.53125 -3.984375 4.367188 -4.164062 4.171875 -4.3125 C 3.972656 -4.457031 3.742188 -4.566406 3.484375 -4.640625 C 3.234375 -4.710938 2.972656 -4.75 2.703125 -4.75 C 2.328125 -4.75 1.992188 -4.6875 1.703125 -4.5625 C 1.410156 -4.4375 1.160156 -4.257812 0.953125 -4.03125 C 0.753906 -3.8125 0.601562 -3.546875 0.5 -3.234375 C 0.394531 -2.929688 0.34375 -2.601562 0.34375 -2.25 C 0.34375 -1.894531 0.394531 -1.570312 0.5 -1.28125 C 0.613281 -1 0.769531 -0.753906 0.96875 -0.546875 C 1.175781 -0.335938 1.425781 -0.175781 1.71875 -0.0625 C 2.007812 0.0507812 2.328125 0.109375 2.671875 0.109375 C 3.285156 0.109375 3.785156 -0.046875 4.171875 -0.359375 C 4.566406 -0.679688 4.804688 -1.148438 4.890625 -1.765625 L 3.671875 -1.765625 C 3.628906 -1.484375 3.523438 -1.253906 3.359375 -1.078125 C 3.203125 -0.910156 2.96875 -0.828125 2.65625 -0.828125 C 2.46875 -0.828125 2.300781 -0.867188 2.15625 -0.953125 C 2.019531 -1.046875 1.910156 -1.160156 1.828125 -1.296875 C 1.753906 -1.441406 1.695312 -1.597656 1.65625 -1.765625 C 1.625 -1.941406 1.609375 -2.113281 1.609375 -2.28125 C 1.609375 -2.457031 1.625 -2.632812 1.65625 -2.8125 C 1.695312 -2.988281 1.757812 -3.148438 1.84375 -3.296875 C 1.925781 -3.441406 2.035156 -3.5625 2.171875 -3.65625 C 2.316406 -3.75 2.488281 -3.796875 2.6875 -3.796875 C 3.226562 -3.796875 3.539062 -3.53125 3.625 -3 Z M 3.625 -3 "/>
</g>
<g id="glyph-0-5">
<path d="M 0.484375 -6.375 L 0.484375 0 L 1.75 0 L 1.75 -2.421875 C 1.75 -2.890625 1.828125 -3.226562 1.984375 -3.4375 C 2.140625 -3.644531 2.390625 -3.75 2.734375 -3.75 C 3.035156 -3.75 3.242188 -3.65625 3.359375 -3.46875 C 3.484375 -3.28125 3.546875 -2.992188 3.546875 -2.609375 L 3.546875 0 L 4.8125 0 L 4.8125 -2.84375 C 4.8125 -3.125 4.785156 -3.382812 4.734375 -3.625 C 4.691406 -3.863281 4.609375 -4.0625 4.484375 -4.21875 C 4.359375 -4.382812 4.1875 -4.515625 3.96875 -4.609375 C 3.75 -4.703125 3.46875 -4.75 3.125 -4.75 C 2.882812 -4.75 2.640625 -4.6875 2.390625 -4.5625 C 2.140625 -4.4375 1.9375 -4.242188 1.78125 -3.984375 L 1.75 -3.984375 L 1.75 -6.375 Z M 0.484375 -6.375 "/>
</g>
<g id="glyph-1-0">
<path d="M 0.90625 -2.21875 L 0.90625 -1.65625 L 6.046875 -1.65625 L 6.046875 -2.21875 Z M 0.90625 -2.21875 "/>
</g>
<g id="glyph-1-1">
<path d="M 2.890625 -2.4375 L 3.5 -2.4375 C 3.476562 -2.65625 3.421875 -2.835938 3.328125 -2.984375 C 3.242188 -3.140625 3.128906 -3.269531 2.984375 -3.375 C 2.847656 -3.476562 2.691406 -3.550781 2.515625 -3.59375 C 2.335938 -3.644531 2.148438 -3.671875 1.953125 -3.671875 C 1.660156 -3.671875 1.410156 -3.617188 1.203125 -3.515625 C 0.992188 -3.421875 0.816406 -3.285156 0.671875 -3.109375 C 0.523438 -2.941406 0.414062 -2.738281 0.34375 -2.5 C 0.28125 -2.269531 0.25 -2.019531 0.25 -1.75 C 0.25 -1.476562 0.285156 -1.226562 0.359375 -1 C 0.429688 -0.78125 0.535156 -0.585938 0.671875 -0.421875 C 0.816406 -0.265625 0.992188 -0.140625 1.203125 -0.046875 C 1.410156 0.0351562 1.65625 0.078125 1.9375 0.078125 C 2.394531 0.078125 2.753906 -0.0390625 3.015625 -0.28125 C 3.285156 -0.519531 3.453125 -0.863281 3.515625 -1.3125 L 2.90625 -1.3125 C 2.875 -1.03125 2.773438 -0.8125 2.609375 -0.65625 C 2.441406 -0.507812 2.210938 -0.4375 1.921875 -0.4375 C 1.734375 -0.4375 1.570312 -0.472656 1.4375 -0.546875 C 1.3125 -0.617188 1.207031 -0.71875 1.125 -0.84375 C 1.039062 -0.96875 0.976562 -1.109375 0.9375 -1.265625 C 0.894531 -1.421875 0.875 -1.582031 0.875 -1.75 C 0.875 -1.925781 0.890625 -2.097656 0.921875 -2.265625 C 0.960938 -2.441406 1.023438 -2.59375 1.109375 -2.71875 C 1.203125 -2.851562 1.316406 -2.957031 1.453125 -3.03125 C 1.597656 -3.113281 1.78125 -3.15625 2 -3.15625 C 2.25 -3.15625 2.445312 -3.09375 2.59375 -2.96875 C 2.738281 -2.84375 2.835938 -2.664062 2.890625 -2.4375 Z M 2.890625 -2.4375 "/>
</g>
<g id="glyph-1-2">
<path d="M 0.875 -1.796875 C 0.875 -2.015625 0.898438 -2.207031 0.953125 -2.375 C 1.015625 -2.539062 1.097656 -2.679688 1.203125 -2.796875 C 1.304688 -2.910156 1.425781 -3 1.5625 -3.0625 C 1.695312 -3.125 1.84375 -3.15625 2 -3.15625 C 2.144531 -3.15625 2.285156 -3.125 2.421875 -3.0625 C 2.566406 -3 2.6875 -2.910156 2.78125 -2.796875 C 2.882812 -2.679688 2.960938 -2.539062 3.015625 -2.375 C 3.078125 -2.207031 3.109375 -2.015625 3.109375 -1.796875 C 3.109375 -1.578125 3.078125 -1.378906 3.015625 -1.203125 C 2.960938 -1.035156 2.882812 -0.894531 2.78125 -0.78125 C 2.6875 -0.675781 2.566406 -0.59375 2.421875 -0.53125 C 2.285156 -0.46875 2.144531 -0.4375 2 -0.4375 C 1.84375 -0.4375 1.695312 -0.46875 1.5625 -0.53125 C 1.425781 -0.59375 1.304688 -0.675781 1.203125 -0.78125 C 1.097656 -0.894531 1.015625 -1.035156 0.953125 -1.203125 C 0.898438 -1.378906 0.875 -1.578125 0.875 -1.796875 Z M 0.25 -1.796875 C 0.25 -1.523438 0.285156 -1.273438 0.359375 -1.046875 C 0.429688 -0.828125 0.539062 -0.628906 0.6875 -0.453125 C 0.84375 -0.285156 1.03125 -0.15625 1.25 -0.0625 C 1.46875 0.0273438 1.71875 0.078125 2 0.078125 C 2.28125 0.078125 2.53125 0.0273438 2.75 -0.0625 C 2.96875 -0.15625 3.148438 -0.285156 3.296875 -0.453125 C 3.441406 -0.628906 3.550781 -0.828125 3.625 -1.046875 C 3.695312 -1.273438 3.734375 -1.523438 3.734375 -1.796875 C 3.734375 -2.054688 3.695312 -2.300781 3.625 -2.53125 C 3.550781 -2.757812 3.441406 -2.957031 3.296875 -3.125 C 3.148438 -3.300781 2.96875 -3.4375 2.75 -3.53125 C 2.53125 -3.625 2.28125 -3.671875 2 -3.671875 C 1.71875 -3.671875 1.46875 -3.625 1.25 -3.53125 C 1.03125 -3.4375 0.84375 -3.300781 0.6875 -3.125 C 0.539062 -2.957031 0.429688 -2.757812 0.359375 -2.53125 C 0.285156 -2.300781 0.25 -2.054688 0.25 -1.796875 Z M 0.25 -1.796875 "/>
</g>
<g id="glyph-1-3">
<path d="M 0.4375 -3.59375 L 0.4375 0 L 1.03125 0 L 1.03125 -2.03125 C 1.03125 -2.195312 1.050781 -2.347656 1.09375 -2.484375 C 1.144531 -2.617188 1.210938 -2.734375 1.296875 -2.828125 C 1.390625 -2.929688 1.5 -3.007812 1.625 -3.0625 C 1.757812 -3.125 1.914062 -3.15625 2.09375 -3.15625 C 2.320312 -3.15625 2.5 -3.085938 2.625 -2.953125 C 2.757812 -2.828125 2.828125 -2.65625 2.828125 -2.4375 L 2.828125 0 L 3.421875 0 L 3.421875 -2.359375 C 3.421875 -2.554688 3.398438 -2.734375 3.359375 -2.890625 C 3.316406 -3.054688 3.25 -3.195312 3.15625 -3.3125 C 3.0625 -3.425781 2.929688 -3.515625 2.765625 -3.578125 C 2.609375 -3.640625 2.414062 -3.671875 2.1875 -3.671875 C 1.65625 -3.671875 1.265625 -3.457031 1.015625 -3.03125 L 1 -3.03125 L 1 -3.59375 Z M 0.4375 -3.59375 "/>
</g>
<g id="glyph-1-4">
<path d="M 0.875 -1.765625 C 0.875 -1.941406 0.890625 -2.113281 0.921875 -2.28125 C 0.960938 -2.445312 1.023438 -2.59375 1.109375 -2.71875 C 1.191406 -2.851562 1.300781 -2.957031 1.4375 -3.03125 C 1.582031 -3.113281 1.753906 -3.15625 1.953125 -3.15625 C 2.160156 -3.15625 2.332031 -3.113281 2.46875 -3.03125 C 2.613281 -2.957031 2.734375 -2.859375 2.828125 -2.734375 C 2.921875 -2.609375 2.988281 -2.460938 3.03125 -2.296875 C 3.070312 -2.140625 3.09375 -1.972656 3.09375 -1.796875 C 3.09375 -1.628906 3.070312 -1.460938 3.03125 -1.296875 C 2.988281 -1.140625 2.921875 -0.992188 2.828125 -0.859375 C 2.742188 -0.734375 2.628906 -0.628906 2.484375 -0.546875 C 2.347656 -0.472656 2.179688 -0.4375 1.984375 -0.4375 C 1.796875 -0.4375 1.628906 -0.472656 1.484375 -0.546875 C 1.347656 -0.617188 1.234375 -0.71875 1.140625 -0.84375 C 1.054688 -0.96875 0.988281 -1.109375 0.9375 -1.265625 C 0.894531 -1.429688 0.875 -1.597656 0.875 -1.765625 Z M 3.65625 0 L 3.65625 -4.96875 L 3.0625 -4.96875 L 3.0625 -3.109375 L 3.046875 -3.109375 C 2.984375 -3.222656 2.90625 -3.3125 2.8125 -3.375 C 2.71875 -3.445312 2.613281 -3.503906 2.5 -3.546875 C 2.394531 -3.597656 2.289062 -3.628906 2.1875 -3.640625 C 2.082031 -3.660156 1.984375 -3.671875 1.890625 -3.671875 C 1.617188 -3.671875 1.378906 -3.617188 1.171875 -3.515625 C 0.960938 -3.421875 0.789062 -3.289062 0.65625 -3.125 C 0.519531 -2.957031 0.414062 -2.757812 0.34375 -2.53125 C 0.28125 -2.300781 0.25 -2.0625 0.25 -1.8125 C 0.25 -1.550781 0.28125 -1.304688 0.34375 -1.078125 C 0.414062 -0.859375 0.519531 -0.660156 0.65625 -0.484375 C 0.800781 -0.316406 0.972656 -0.179688 1.171875 -0.078125 C 1.378906 0.0234375 1.625 0.078125 1.90625 0.078125 C 2.15625 0.078125 2.382812 0.0351562 2.59375 -0.046875 C 2.800781 -0.140625 2.953125 -0.285156 3.046875 -0.484375 L 3.0625 -0.484375 L 3.0625 0 Z M 3.65625 0 "/>
</g>
<g id="glyph-1-5">
<path d="M 1.078125 -4.234375 L 1.078125 -4.96875 L 0.484375 -4.96875 L 0.484375 -4.234375 Z M 0.484375 -3.59375 L 0.484375 0 L 1.078125 0 L 1.078125 -3.59375 Z M 0.484375 -3.59375 "/>
</g>
<g id="glyph-1-6">
<path d="M 1.265625 -3.59375 L 1.265625 -4.671875 L 0.671875 -4.671875 L 0.671875 -3.59375 L 0.0625 -3.59375 L 0.0625 -3.078125 L 0.671875 -3.078125 L 0.671875 -0.78125 C 0.671875 -0.613281 0.6875 -0.476562 0.71875 -0.375 C 0.75 -0.28125 0.796875 -0.203125 0.859375 -0.140625 C 0.929688 -0.0859375 1.019531 -0.0507812 1.125 -0.03125 C 1.238281 -0.0078125 1.375 0 1.53125 0 L 1.984375 0 L 1.984375 -0.515625 L 1.703125 -0.515625 C 1.617188 -0.515625 1.546875 -0.519531 1.484375 -0.53125 C 1.421875 -0.539062 1.375 -0.554688 1.34375 -0.578125 C 1.3125 -0.597656 1.289062 -0.628906 1.28125 -0.671875 C 1.269531 -0.710938 1.265625 -0.769531 1.265625 -0.84375 L 1.265625 -3.078125 L 1.984375 -3.078125 L 1.984375 -3.59375 Z M 1.265625 -3.59375 "/>
</g>
<g id="glyph-1-7">
<path d="M 3.625 -0.015625 C 3.53125 0.046875 3.390625 0.078125 3.203125 0.078125 C 3.046875 0.078125 2.921875 0.0351562 2.828125 -0.046875 C 2.742188 -0.140625 2.703125 -0.28125 2.703125 -0.46875 C 2.546875 -0.28125 2.359375 -0.140625 2.140625 -0.046875 C 1.921875 0.0351562 1.6875 0.078125 1.4375 0.078125 C 1.28125 0.078125 1.128906 0.0546875 0.984375 0.015625 C 0.835938 -0.0117188 0.707031 -0.0664062 0.59375 -0.140625 C 0.488281 -0.222656 0.40625 -0.328125 0.34375 -0.453125 C 0.28125 -0.585938 0.25 -0.742188 0.25 -0.921875 C 0.25 -1.128906 0.28125 -1.296875 0.34375 -1.421875 C 0.414062 -1.554688 0.507812 -1.660156 0.625 -1.734375 C 0.738281 -1.816406 0.867188 -1.878906 1.015625 -1.921875 C 1.160156 -1.960938 1.3125 -2 1.46875 -2.03125 C 1.625 -2.0625 1.773438 -2.082031 1.921875 -2.09375 C 2.078125 -2.113281 2.207031 -2.140625 2.3125 -2.171875 C 2.425781 -2.203125 2.515625 -2.242188 2.578125 -2.296875 C 2.640625 -2.359375 2.671875 -2.445312 2.671875 -2.5625 C 2.671875 -2.6875 2.644531 -2.785156 2.59375 -2.859375 C 2.550781 -2.941406 2.488281 -3.003906 2.40625 -3.046875 C 2.332031 -3.085938 2.25 -3.113281 2.15625 -3.125 C 2.0625 -3.144531 1.96875 -3.15625 1.875 -3.15625 C 1.625 -3.15625 1.414062 -3.109375 1.25 -3.015625 C 1.082031 -2.921875 0.992188 -2.738281 0.984375 -2.46875 L 0.390625 -2.46875 C 0.398438 -2.695312 0.445312 -2.882812 0.53125 -3.03125 C 0.613281 -3.1875 0.722656 -3.3125 0.859375 -3.40625 C 1.003906 -3.5 1.164062 -3.566406 1.34375 -3.609375 C 1.519531 -3.648438 1.707031 -3.671875 1.90625 -3.671875 C 2.070312 -3.671875 2.234375 -3.660156 2.390625 -3.640625 C 2.554688 -3.617188 2.703125 -3.570312 2.828125 -3.5 C 2.960938 -3.425781 3.066406 -3.320312 3.140625 -3.1875 C 3.222656 -3.0625 3.265625 -2.894531 3.265625 -2.6875 L 3.265625 -0.84375 C 3.265625 -0.695312 3.269531 -0.59375 3.28125 -0.53125 C 3.300781 -0.46875 3.359375 -0.4375 3.453125 -0.4375 C 3.503906 -0.4375 3.5625 -0.445312 3.625 -0.46875 Z M 2.671875 -1.859375 C 2.597656 -1.796875 2.5 -1.753906 2.375 -1.734375 C 2.257812 -1.710938 2.132812 -1.691406 2 -1.671875 C 1.863281 -1.648438 1.726562 -1.628906 1.59375 -1.609375 C 1.457031 -1.585938 1.335938 -1.554688 1.234375 -1.515625 C 1.128906 -1.472656 1.039062 -1.40625 0.96875 -1.3125 C 0.90625 -1.226562 0.875 -1.113281 0.875 -0.96875 C 0.875 -0.875 0.894531 -0.789062 0.9375 -0.71875 C 0.976562 -0.65625 1.03125 -0.601562 1.09375 -0.5625 C 1.15625 -0.519531 1.226562 -0.488281 1.3125 -0.46875 C 1.394531 -0.445312 1.484375 -0.4375 1.578125 -0.4375 C 1.765625 -0.4375 1.925781 -0.460938 2.0625 -0.515625 C 2.207031 -0.566406 2.320312 -0.632812 2.40625 -0.71875 C 2.5 -0.800781 2.566406 -0.890625 2.609375 -0.984375 C 2.648438 -1.078125 2.671875 -1.164062 2.671875 -1.25 Z M 2.671875 -1.859375 "/>
</g>
<g id="glyph-1-8">
<path d="M 0.484375 -4.96875 L 0.484375 0 L 1.078125 0 L 1.078125 -4.96875 Z M 0.484375 -4.96875 "/>
</g>
<g id="glyph-1-9">
<path d="M 0.46875 -4.96875 L 0.46875 0 L 1.0625 0 L 1.0625 -0.484375 L 1.078125 -0.484375 C 1.140625 -0.367188 1.21875 -0.273438 1.3125 -0.203125 C 1.40625 -0.140625 1.503906 -0.0859375 1.609375 -0.046875 C 1.710938 -0.00390625 1.816406 0.0234375 1.921875 0.046875 C 2.035156 0.0664062 2.140625 0.078125 2.234375 0.078125 C 2.503906 0.078125 2.742188 0.0273438 2.953125 -0.0625 C 3.160156 -0.164062 3.332031 -0.300781 3.46875 -0.46875 C 3.601562 -0.632812 3.703125 -0.832031 3.765625 -1.0625 C 3.835938 -1.289062 3.875 -1.53125 3.875 -1.78125 C 3.875 -2.039062 3.835938 -2.28125 3.765625 -2.5 C 3.703125 -2.726562 3.597656 -2.929688 3.453125 -3.109375 C 3.316406 -3.285156 3.144531 -3.421875 2.9375 -3.515625 C 2.738281 -3.617188 2.5 -3.671875 2.21875 -3.671875 C 1.96875 -3.671875 1.738281 -3.625 1.53125 -3.53125 C 1.320312 -3.445312 1.171875 -3.304688 1.078125 -3.109375 L 1.0625 -3.109375 L 1.0625 -4.96875 Z M 3.25 -1.828125 C 3.25 -1.648438 3.226562 -1.476562 3.1875 -1.3125 C 3.15625 -1.144531 3.097656 -0.992188 3.015625 -0.859375 C 2.929688 -0.734375 2.816406 -0.628906 2.671875 -0.546875 C 2.535156 -0.472656 2.367188 -0.4375 2.171875 -0.4375 C 1.960938 -0.4375 1.785156 -0.472656 1.640625 -0.546875 C 1.503906 -0.628906 1.390625 -0.734375 1.296875 -0.859375 C 1.203125 -0.984375 1.132812 -1.125 1.09375 -1.28125 C 1.050781 -1.445312 1.03125 -1.617188 1.03125 -1.796875 C 1.03125 -1.960938 1.050781 -2.125 1.09375 -2.28125 C 1.132812 -2.445312 1.195312 -2.59375 1.28125 -2.71875 C 1.375 -2.851562 1.488281 -2.957031 1.625 -3.03125 C 1.757812 -3.113281 1.929688 -3.15625 2.140625 -3.15625 C 2.328125 -3.15625 2.488281 -3.117188 2.625 -3.046875 C 2.769531 -2.972656 2.882812 -2.875 2.96875 -2.75 C 3.0625 -2.625 3.128906 -2.476562 3.171875 -2.3125 C 3.222656 -2.15625 3.25 -1.992188 3.25 -1.828125 Z M 3.25 -1.828125 "/>
</g>
<g id="glyph-1-10">
<path d="M 0.421875 -3.59375 L 0.421875 0 L 1.015625 0 L 1.015625 -1.59375 C 1.015625 -1.832031 1.035156 -2.039062 1.078125 -2.21875 C 1.128906 -2.394531 1.203125 -2.546875 1.296875 -2.671875 C 1.398438 -2.796875 1.535156 -2.890625 1.703125 -2.953125 C 1.867188 -3.015625 2.070312 -3.046875 2.3125 -3.046875 L 2.3125 -3.671875 C 1.988281 -3.679688 1.722656 -3.617188 1.515625 -3.484375 C 1.304688 -3.347656 1.132812 -3.132812 1 -2.84375 L 0.984375 -2.84375 L 0.984375 -3.59375 Z M 0.421875 -3.59375 "/>
</g>
<g id="glyph-1-11">
<path d="M 0.4375 -4.96875 L 0.4375 0 L 1.03125 0 L 1.03125 -2.03125 C 1.03125 -2.195312 1.050781 -2.347656 1.09375 -2.484375 C 1.144531 -2.617188 1.210938 -2.734375 1.296875 -2.828125 C 1.390625 -2.929688 1.5 -3.007812 1.625 -3.0625 C 1.757812 -3.125 1.914062 -3.15625 2.09375 -3.15625 C 2.320312 -3.15625 2.5 -3.085938 2.625 -2.953125 C 2.757812 -2.828125 2.828125 -2.65625 2.828125 -2.4375 L 2.828125 0 L 3.421875 0 L 3.421875 -2.359375 C 3.421875 -2.554688 3.398438 -2.734375 3.359375 -2.890625 C 3.316406 -3.054688 3.25 -3.195312 3.15625 -3.3125 C 3.0625 -3.425781 2.929688 -3.515625 2.765625 -3.578125 C 2.609375 -3.640625 2.414062 -3.671875 2.1875 -3.671875 C 2.070312 -3.671875 1.957031 -3.660156 1.84375 -3.640625 C 1.738281 -3.617188 1.632812 -3.582031 1.53125 -3.53125 C 1.425781 -3.488281 1.332031 -3.425781 1.25 -3.34375 C 1.164062 -3.269531 1.097656 -3.175781 1.046875 -3.0625 L 1.03125 -3.0625 L 1.03125 -4.96875 Z M 0.4375 -4.96875 "/>
</g>
<g id="glyph-1-12">
<path d="M 3.546875 -0.3125 L 3.546875 -3.59375 L 2.984375 -3.59375 L 2.984375 -3.078125 C 2.878906 -3.273438 2.726562 -3.421875 2.53125 -3.515625 C 2.34375 -3.617188 2.132812 -3.671875 1.90625 -3.671875 C 1.601562 -3.671875 1.34375 -3.613281 1.125 -3.5 C 0.914062 -3.382812 0.742188 -3.234375 0.609375 -3.046875 C 0.484375 -2.867188 0.390625 -2.664062 0.328125 -2.4375 C 0.273438 -2.207031 0.25 -1.988281 0.25 -1.78125 C 0.25 -1.53125 0.28125 -1.296875 0.34375 -1.078125 C 0.414062 -0.859375 0.519531 -0.664062 0.65625 -0.5 C 0.789062 -0.332031 0.957031 -0.203125 1.15625 -0.109375 C 1.351562 -0.015625 1.585938 0.03125 1.859375 0.03125 C 2.085938 0.03125 2.304688 -0.0195312 2.515625 -0.125 C 2.722656 -0.226562 2.875 -0.390625 2.96875 -0.609375 L 2.984375 -0.609375 L 2.984375 -0.375 C 2.984375 -0.175781 2.960938 0.00390625 2.921875 0.171875 C 2.890625 0.335938 2.828125 0.476562 2.734375 0.59375 C 2.648438 0.71875 2.539062 0.8125 2.40625 0.875 C 2.269531 0.945312 2.101562 0.984375 1.90625 0.984375 C 1.8125 0.984375 1.710938 0.972656 1.609375 0.953125 C 1.503906 0.929688 1.40625 0.894531 1.3125 0.84375 C 1.21875 0.800781 1.140625 0.742188 1.078125 0.671875 C 1.015625 0.597656 0.984375 0.503906 0.984375 0.390625 L 0.390625 0.390625 C 0.398438 0.585938 0.453125 0.753906 0.546875 0.890625 C 0.640625 1.023438 0.753906 1.132812 0.890625 1.21875 C 1.035156 1.300781 1.191406 1.359375 1.359375 1.390625 C 1.535156 1.429688 1.707031 1.453125 1.875 1.453125 C 2.445312 1.453125 2.867188 1.304688 3.140625 1.015625 C 3.410156 0.722656 3.546875 0.277344 3.546875 -0.3125 Z M 1.890625 -0.484375 C 1.691406 -0.484375 1.523438 -0.519531 1.390625 -0.59375 C 1.265625 -0.675781 1.160156 -0.785156 1.078125 -0.921875 C 1.003906 -1.054688 0.953125 -1.203125 0.921875 -1.359375 C 0.890625 -1.523438 0.875 -1.6875 0.875 -1.84375 C 0.875 -2.019531 0.894531 -2.1875 0.9375 -2.34375 C 0.976562 -2.5 1.039062 -2.632812 1.125 -2.75 C 1.207031 -2.875 1.316406 -2.972656 1.453125 -3.046875 C 1.585938 -3.117188 1.75 -3.15625 1.9375 -3.15625 C 2.125 -3.15625 2.28125 -3.117188 2.40625 -3.046875 C 2.539062 -2.972656 2.644531 -2.875 2.71875 -2.75 C 2.800781 -2.625 2.863281 -2.484375 2.90625 -2.328125 C 2.945312 -2.179688 2.96875 -2.03125 2.96875 -1.875 C 2.96875 -1.707031 2.945312 -1.539062 2.90625 -1.375 C 2.863281 -1.207031 2.800781 -1.054688 2.71875 -0.921875 C 2.632812 -0.785156 2.523438 -0.675781 2.390625 -0.59375 C 2.253906 -0.519531 2.085938 -0.484375 1.890625 -0.484375 Z M 1.890625 -0.484375 "/>
</g>
<g id="glyph-1-13">
<path d="M 1.390625 -2.046875 L 2.234375 -4.359375 L 2.25 -4.359375 L 3.078125 -2.046875 Z M 1.890625 -4.96875 L -0.046875 0 L 0.625 0 L 1.1875 -1.5 L 3.28125 -1.5 L 3.828125 0 L 4.5625 0 L 2.625 -4.96875 Z M 1.890625 -4.96875 "/>
</g>
<g id="glyph-1-14">
<path d="M 1.203125 -2.828125 L 1.203125 -4.40625 L 2.53125 -4.40625 C 2.664062 -4.40625 2.796875 -4.394531 2.921875 -4.375 C 3.054688 -4.363281 3.171875 -4.328125 3.265625 -4.265625 C 3.359375 -4.210938 3.429688 -4.132812 3.484375 -4.03125 C 3.546875 -3.9375 3.578125 -3.800781 3.578125 -3.625 C 3.578125 -3.351562 3.492188 -3.148438 3.328125 -3.015625 C 3.171875 -2.890625 2.90625 -2.828125 2.53125 -2.828125 Z M 0.546875 -4.96875 L 0.546875 0 L 2.9375 0 C 3.1875 0 3.40625 -0.0390625 3.59375 -0.125 C 3.78125 -0.207031 3.9375 -0.3125 4.0625 -0.4375 C 4.1875 -0.570312 4.28125 -0.722656 4.34375 -0.890625 C 4.414062 -1.066406 4.453125 -1.242188 4.453125 -1.421875 C 4.453125 -1.734375 4.367188 -1.992188 4.203125 -2.203125 C 4.046875 -2.421875 3.8125 -2.5625 3.5 -2.625 L 3.5 -2.640625 C 3.738281 -2.734375 3.921875 -2.875 4.046875 -3.0625 C 4.171875 -3.25 4.234375 -3.476562 4.234375 -3.75 C 4.234375 -4 4.175781 -4.207031 4.0625 -4.375 C 3.957031 -4.550781 3.820312 -4.6875 3.65625 -4.78125 C 3.582031 -4.832031 3.492188 -4.867188 3.390625 -4.890625 C 3.285156 -4.910156 3.171875 -4.925781 3.046875 -4.9375 C 2.929688 -4.945312 2.8125 -4.953125 2.6875 -4.953125 C 2.5625 -4.960938 2.445312 -4.96875 2.34375 -4.96875 Z M 1.203125 -0.5625 L 1.203125 -2.28125 L 2.71875 -2.28125 C 2.851562 -2.28125 2.984375 -2.265625 3.109375 -2.234375 C 3.242188 -2.210938 3.359375 -2.171875 3.453125 -2.109375 C 3.554688 -2.046875 3.640625 -1.957031 3.703125 -1.84375 C 3.765625 -1.738281 3.796875 -1.609375 3.796875 -1.453125 C 3.796875 -1.171875 3.710938 -0.953125 3.546875 -0.796875 C 3.378906 -0.640625 3.148438 -0.5625 2.859375 -0.5625 Z M 1.203125 -0.5625 "/>
</g>
<g id="glyph-1-15">
<path d="M 4.03125 -3.46875 L 4.6875 -3.46875 C 4.65625 -3.726562 4.578125 -3.957031 4.453125 -4.15625 C 4.335938 -4.363281 4.1875 -4.535156 4 -4.671875 C 3.820312 -4.804688 3.613281 -4.90625 3.375 -4.96875 C 3.144531 -5.039062 2.90625 -5.078125 2.65625 -5.078125 C 2.269531 -5.078125 1.929688 -5.007812 1.640625 -4.875 C 1.347656 -4.738281 1.101562 -4.550781 0.90625 -4.3125 C 0.707031 -4.082031 0.554688 -3.804688 0.453125 -3.484375 C 0.347656 -3.171875 0.296875 -2.832031 0.296875 -2.46875 C 0.296875 -2.101562 0.34375 -1.765625 0.4375 -1.453125 C 0.53125 -1.140625 0.671875 -0.863281 0.859375 -0.625 C 1.054688 -0.394531 1.296875 -0.210938 1.578125 -0.078125 C 1.867188 0.0429688 2.207031 0.109375 2.59375 0.109375 C 3.226562 0.109375 3.726562 -0.0625 4.09375 -0.40625 C 4.457031 -0.757812 4.671875 -1.25 4.734375 -1.875 L 4.078125 -1.875 C 4.066406 -1.664062 4.023438 -1.472656 3.953125 -1.296875 C 3.890625 -1.117188 3.796875 -0.96875 3.671875 -0.84375 C 3.546875 -0.71875 3.394531 -0.617188 3.21875 -0.546875 C 3.050781 -0.472656 2.863281 -0.4375 2.65625 -0.4375 C 2.351562 -0.4375 2.09375 -0.488281 1.875 -0.59375 C 1.664062 -0.707031 1.492188 -0.859375 1.359375 -1.046875 C 1.222656 -1.234375 1.117188 -1.453125 1.046875 -1.703125 C 0.984375 -1.960938 0.953125 -2.234375 0.953125 -2.515625 C 0.953125 -2.773438 0.984375 -3.023438 1.046875 -3.265625 C 1.117188 -3.503906 1.222656 -3.71875 1.359375 -3.90625 C 1.492188 -4.09375 1.664062 -4.242188 1.875 -4.359375 C 2.09375 -4.472656 2.347656 -4.53125 2.640625 -4.53125 C 2.984375 -4.53125 3.28125 -4.441406 3.53125 -4.265625 C 3.789062 -4.085938 3.957031 -3.820312 4.03125 -3.46875 Z M 4.03125 -3.46875 "/>
</g>
<g id="glyph-1-16">
<path d="M 0.921875 -2.421875 C 0.921875 -2.546875 0.921875 -2.679688 0.921875 -2.828125 C 0.921875 -2.972656 0.929688 -3.117188 0.953125 -3.265625 C 0.972656 -3.410156 1.003906 -3.550781 1.046875 -3.6875 C 1.085938 -3.832031 1.144531 -3.957031 1.21875 -4.0625 C 1.289062 -4.164062 1.382812 -4.25 1.5 -4.3125 C 1.625 -4.375 1.769531 -4.40625 1.9375 -4.40625 C 2.101562 -4.40625 2.242188 -4.375 2.359375 -4.3125 C 2.472656 -4.25 2.566406 -4.164062 2.640625 -4.0625 C 2.722656 -3.957031 2.78125 -3.832031 2.8125 -3.6875 C 2.851562 -3.550781 2.882812 -3.410156 2.90625 -3.265625 C 2.925781 -3.117188 2.9375 -2.972656 2.9375 -2.828125 C 2.945312 -2.679688 2.953125 -2.546875 2.953125 -2.421875 C 2.953125 -2.242188 2.941406 -2.035156 2.921875 -1.796875 C 2.910156 -1.566406 2.875 -1.351562 2.8125 -1.15625 C 2.75 -0.957031 2.648438 -0.785156 2.515625 -0.640625 C 2.378906 -0.503906 2.1875 -0.4375 1.9375 -0.4375 C 1.6875 -0.4375 1.488281 -0.503906 1.34375 -0.640625 C 1.207031 -0.785156 1.109375 -0.957031 1.046875 -1.15625 C 0.984375 -1.351562 0.945312 -1.566406 0.9375 -1.796875 C 0.925781 -2.035156 0.921875 -2.242188 0.921875 -2.421875 Z M 0.296875 -2.421875 C 0.296875 -2.242188 0.296875 -2.054688 0.296875 -1.859375 C 0.304688 -1.660156 0.332031 -1.46875 0.375 -1.28125 C 0.414062 -1.101562 0.46875 -0.929688 0.53125 -0.765625 C 0.601562 -0.597656 0.695312 -0.453125 0.8125 -0.328125 C 0.9375 -0.203125 1.085938 -0.101562 1.265625 -0.03125 C 1.453125 0.0390625 1.675781 0.078125 1.9375 0.078125 C 2.195312 0.078125 2.414062 0.0390625 2.59375 -0.03125 C 2.769531 -0.101562 2.914062 -0.203125 3.03125 -0.328125 C 3.15625 -0.453125 3.253906 -0.597656 3.328125 -0.765625 C 3.398438 -0.929688 3.453125 -1.101562 3.484375 -1.28125 C 3.523438 -1.46875 3.550781 -1.660156 3.5625 -1.859375 C 3.570312 -2.054688 3.578125 -2.242188 3.578125 -2.421875 C 3.578125 -2.597656 3.570312 -2.785156 3.5625 -2.984375 C 3.550781 -3.179688 3.523438 -3.367188 3.484375 -3.546875 C 3.453125 -3.734375 3.398438 -3.910156 3.328125 -4.078125 C 3.253906 -4.242188 3.15625 -4.390625 3.03125 -4.515625 C 2.914062 -4.640625 2.765625 -4.738281 2.578125 -4.8125 C 2.398438 -4.894531 2.1875 -4.9375 1.9375 -4.9375 C 1.675781 -4.9375 1.453125 -4.894531 1.265625 -4.8125 C 1.085938 -4.738281 0.9375 -4.640625 0.8125 -4.515625 C 0.695312 -4.390625 0.601562 -4.242188 0.53125 -4.078125 C 0.46875 -3.910156 0.414062 -3.734375 0.375 -3.546875 C 0.332031 -3.367188 0.304688 -3.179688 0.296875 -2.984375 C 0.296875 -2.785156 0.296875 -2.597656 0.296875 -2.421875 Z M 0.296875 -2.421875 "/>
</g>
<g id="glyph-1-17">
<path d="M 2.46875 0 L 2.46875 -4.9375 L 2.015625 -4.9375 C 1.984375 -4.75 1.921875 -4.59375 1.828125 -4.46875 C 1.742188 -4.351562 1.640625 -4.257812 1.515625 -4.1875 C 1.390625 -4.113281 1.25 -4.0625 1.09375 -4.03125 C 0.9375 -4.007812 0.773438 -4 0.609375 -4 L 0.609375 -3.53125 L 1.890625 -3.53125 L 1.890625 0 Z M 2.46875 0 "/>
</g>
<g id="glyph-1-18">
<path d="M 0.3125 -3.1875 L 0.890625 -3.1875 C 0.890625 -3.332031 0.90625 -3.476562 0.9375 -3.625 C 0.976562 -3.769531 1.035156 -3.898438 1.109375 -4.015625 C 1.191406 -4.128906 1.289062 -4.222656 1.40625 -4.296875 C 1.53125 -4.367188 1.679688 -4.40625 1.859375 -4.40625 C 1.984375 -4.40625 2.101562 -4.382812 2.21875 -4.34375 C 2.34375 -4.300781 2.445312 -4.238281 2.53125 -4.15625 C 2.613281 -4.082031 2.679688 -3.988281 2.734375 -3.875 C 2.785156 -3.769531 2.8125 -3.648438 2.8125 -3.515625 C 2.8125 -3.347656 2.785156 -3.195312 2.734375 -3.0625 C 2.679688 -2.9375 2.601562 -2.816406 2.5 -2.703125 C 2.394531 -2.585938 2.257812 -2.476562 2.09375 -2.375 C 1.9375 -2.269531 1.753906 -2.148438 1.546875 -2.015625 C 1.378906 -1.910156 1.21875 -1.800781 1.0625 -1.6875 C 0.90625 -1.570312 0.757812 -1.4375 0.625 -1.28125 C 0.5 -1.132812 0.394531 -0.957031 0.3125 -0.75 C 0.238281 -0.539062 0.191406 -0.289062 0.171875 0 L 3.390625 0 L 3.390625 -0.515625 L 0.859375 -0.515625 C 0.878906 -0.671875 0.9375 -0.804688 1.03125 -0.921875 C 1.125 -1.046875 1.234375 -1.15625 1.359375 -1.25 C 1.484375 -1.351562 1.625 -1.453125 1.78125 -1.546875 C 1.9375 -1.640625 2.085938 -1.734375 2.234375 -1.828125 C 2.390625 -1.921875 2.539062 -2.019531 2.6875 -2.125 C 2.832031 -2.226562 2.957031 -2.347656 3.0625 -2.484375 C 3.175781 -2.617188 3.265625 -2.769531 3.328125 -2.9375 C 3.398438 -3.101562 3.4375 -3.296875 3.4375 -3.515625 C 3.4375 -3.742188 3.394531 -3.945312 3.3125 -4.125 C 3.226562 -4.300781 3.117188 -4.445312 2.984375 -4.5625 C 2.847656 -4.675781 2.6875 -4.765625 2.5 -4.828125 C 2.3125 -4.898438 2.109375 -4.9375 1.890625 -4.9375 C 1.628906 -4.9375 1.394531 -4.890625 1.1875 -4.796875 C 0.988281 -4.710938 0.820312 -4.59375 0.6875 -4.4375 C 0.550781 -4.28125 0.445312 -4.09375 0.375 -3.875 C 0.3125 -3.664062 0.289062 -3.4375 0.3125 -3.1875 Z M 0.3125 -3.1875 "/>
</g>
<g id="glyph-1-19">
<path d="M 1.421875 1.375 L 1.875 1.375 C 1.539062 0.832031 1.300781 0.300781 1.15625 -0.21875 C 1.019531 -0.738281 0.953125 -1.289062 0.953125 -1.875 C 0.953125 -2.445312 1.019531 -2.992188 1.15625 -3.515625 C 1.300781 -4.035156 1.539062 -4.554688 1.875 -5.078125 L 1.421875 -5.078125 C 1.054688 -4.597656 0.78125 -4.082031 0.59375 -3.53125 C 0.414062 -2.976562 0.328125 -2.425781 0.328125 -1.875 C 0.328125 -1.570312 0.351562 -1.28125 0.40625 -1 C 0.457031 -0.71875 0.53125 -0.445312 0.625 -0.1875 C 0.71875 0.0703125 0.832031 0.332031 0.96875 0.59375 C 1.101562 0.851562 1.253906 1.113281 1.421875 1.375 Z M 1.421875 1.375 "/>
</g>
<g id="glyph-1-20">
<path d="M 2.0625 0 L 3.375 -3.59375 L 2.765625 -3.59375 L 1.78125 -0.59375 L 1.765625 -0.59375 L 0.765625 -3.59375 L 0.09375 -3.59375 L 1.4375 0 Z M 2.0625 0 "/>
</g>
<g id="glyph-1-21">
<path d="M 2.9375 -2.140625 L 0.875 -2.140625 C 0.882812 -2.273438 0.914062 -2.40625 0.96875 -2.53125 C 1.019531 -2.65625 1.085938 -2.765625 1.171875 -2.859375 C 1.265625 -2.953125 1.367188 -3.023438 1.484375 -3.078125 C 1.609375 -3.128906 1.75 -3.15625 1.90625 -3.15625 C 2.050781 -3.15625 2.1875 -3.128906 2.3125 -3.078125 C 2.4375 -3.023438 2.539062 -2.953125 2.625 -2.859375 C 2.71875 -2.765625 2.789062 -2.65625 2.84375 -2.53125 C 2.894531 -2.40625 2.925781 -2.273438 2.9375 -2.140625 Z M 3.515625 -1.140625 L 2.921875 -1.140625 C 2.867188 -0.898438 2.765625 -0.722656 2.609375 -0.609375 C 2.453125 -0.492188 2.25 -0.4375 2 -0.4375 C 1.800781 -0.4375 1.628906 -0.46875 1.484375 -0.53125 C 1.335938 -0.59375 1.21875 -0.675781 1.125 -0.78125 C 1.039062 -0.894531 0.976562 -1.023438 0.9375 -1.171875 C 0.894531 -1.316406 0.875 -1.46875 0.875 -1.625 L 3.5625 -1.625 C 3.570312 -1.84375 3.550781 -2.070312 3.5 -2.3125 C 3.457031 -2.550781 3.367188 -2.769531 3.234375 -2.96875 C 3.109375 -3.175781 2.941406 -3.34375 2.734375 -3.46875 C 2.523438 -3.601562 2.257812 -3.671875 1.9375 -3.671875 C 1.695312 -3.671875 1.472656 -3.625 1.265625 -3.53125 C 1.054688 -3.445312 0.875 -3.320312 0.71875 -3.15625 C 0.570312 -2.988281 0.457031 -2.789062 0.375 -2.5625 C 0.289062 -2.332031 0.25 -2.082031 0.25 -1.8125 C 0.257812 -1.53125 0.300781 -1.273438 0.375 -1.046875 C 0.445312 -0.816406 0.550781 -0.617188 0.6875 -0.453125 C 0.832031 -0.285156 1.007812 -0.15625 1.21875 -0.0625 C 1.4375 0.0273438 1.6875 0.078125 1.96875 0.078125 C 2.382812 0.078125 2.722656 -0.0195312 2.984375 -0.21875 C 3.253906 -0.425781 3.429688 -0.734375 3.515625 -1.140625 Z M 3.515625 -1.140625 "/>
</g>
<g id="glyph-1-22">
<path d="M -0.0625 1.375 L 0.375 1.375 C 0.738281 0.894531 1.007812 0.378906 1.1875 -0.171875 C 1.375 -0.734375 1.46875 -1.285156 1.46875 -1.828125 C 1.46875 -2.128906 1.441406 -2.421875 1.390625 -2.703125 C 1.347656 -2.984375 1.273438 -3.253906 1.171875 -3.515625 C 1.078125 -3.785156 0.960938 -4.046875 0.828125 -4.296875 C 0.691406 -4.554688 0.539062 -4.816406 0.375 -5.078125 L -0.0625 -5.078125 C 0.257812 -4.546875 0.488281 -4.015625 0.625 -3.484375 C 0.769531 -2.960938 0.84375 -2.410156 0.84375 -1.828125 C 0.84375 -1.265625 0.773438 -0.722656 0.640625 -0.203125 C 0.503906 0.316406 0.269531 0.84375 -0.0625 1.375 Z M -0.0625 1.375 "/>
</g>
<g id="glyph-2-0">
<path d="M 0.765625 -3.03125 L 0.765625 -3.546875 L 0.34375 -3.546875 L 0.34375 -3.03125 Z M 0.34375 -2.5625 L 0.34375 0 L 0.765625 0 L 0.765625 -2.5625 Z M 0.34375 -2.5625 "/>
</g>
<g id="glyph-2-1">
<path d="M 0.625 -1.265625 C 0.625 -1.390625 0.632812 -1.507812 0.65625 -1.625 C 0.6875 -1.75 0.734375 -1.859375 0.796875 -1.953125 C 0.859375 -2.046875 0.9375 -2.117188 1.03125 -2.171875 C 1.132812 -2.222656 1.253906 -2.25 1.390625 -2.25 C 1.535156 -2.25 1.660156 -2.222656 1.765625 -2.171875 C 1.867188 -2.117188 1.953125 -2.046875 2.015625 -1.953125 C 2.078125 -1.867188 2.125 -1.765625 2.15625 -1.640625 C 2.1875 -1.523438 2.203125 -1.40625 2.203125 -1.28125 C 2.203125 -1.164062 2.1875 -1.046875 2.15625 -0.921875 C 2.132812 -0.804688 2.09375 -0.703125 2.03125 -0.609375 C 1.96875 -0.523438 1.882812 -0.453125 1.78125 -0.390625 C 1.6875 -0.335938 1.566406 -0.3125 1.421875 -0.3125 C 1.285156 -0.3125 1.164062 -0.335938 1.0625 -0.390625 C 0.96875 -0.441406 0.882812 -0.507812 0.8125 -0.59375 C 0.75 -0.6875 0.703125 -0.789062 0.671875 -0.90625 C 0.640625 -1.019531 0.625 -1.140625 0.625 -1.265625 Z M 2.609375 0 L 2.609375 -3.546875 L 2.1875 -3.546875 L 2.1875 -2.21875 C 2.132812 -2.300781 2.070312 -2.367188 2 -2.421875 C 1.9375 -2.472656 1.863281 -2.515625 1.78125 -2.546875 C 1.707031 -2.578125 1.632812 -2.597656 1.5625 -2.609375 C 1.488281 -2.617188 1.414062 -2.625 1.34375 -2.625 C 1.15625 -2.625 0.984375 -2.585938 0.828125 -2.515625 C 0.679688 -2.453125 0.5625 -2.359375 0.46875 -2.234375 C 0.375 -2.109375 0.300781 -1.960938 0.25 -1.796875 C 0.195312 -1.640625 0.171875 -1.472656 0.171875 -1.296875 C 0.171875 -1.109375 0.195312 -0.929688 0.25 -0.765625 C 0.300781 -0.609375 0.375 -0.46875 0.46875 -0.34375 C 0.570312 -0.21875 0.695312 -0.117188 0.84375 -0.046875 C 0.988281 0.0117188 1.160156 0.046875 1.359375 0.046875 C 1.535156 0.046875 1.695312 0.0117188 1.84375 -0.046875 C 2 -0.109375 2.113281 -0.207031 2.1875 -0.34375 L 2.1875 0 Z M 2.609375 0 "/>
</g>
<g id="glyph-2-2">
<path d="M 1.015625 -1.34375 L 0.046875 0 L 0.5625 0 L 1.265625 -1.0625 L 1.984375 0 L 2.53125 0 L 1.53125 -1.390625 L 2.421875 -2.5625 L 1.90625 -2.5625 L 1.265625 -1.671875 L 0.65625 -2.5625 L 0.109375 -2.5625 Z M 1.015625 -1.34375 "/>
</g>
<g id="glyph-3-0">
<path d="M 2.4375 -1.640625 L 3.578125 -1.640625 C 3.671875 -1.640625 3.75 -1.640625 3.84375 -1.71875 C 3.859375 -1.734375 3.96875 -1.828125 3.96875 -1.96875 C 3.96875 -2.21875 3.734375 -2.21875 3.65625 -2.21875 L 1.546875 -2.21875 C 1.421875 -2.21875 1.15625 -2.21875 0.78125 -1.953125 C 0.6875 -1.890625 0.359375 -1.609375 0.359375 -1.515625 C 0.359375 -1.40625 0.4375 -1.40625 0.5625 -1.40625 C 0.703125 -1.40625 0.703125 -1.40625 0.75 -1.453125 C 0.84375 -1.53125 0.953125 -1.640625 1.390625 -1.640625 L 1.96875 -1.640625 L 1.609375 -0.515625 C 1.578125 -0.40625 1.53125 -0.25 1.53125 -0.1875 C 1.53125 -0.03125 1.65625 0.0625 1.796875 0.0625 C 1.828125 0.0625 2.109375 0.0625 2.171875 -0.28125 Z M 2.4375 -1.640625 "/>
</g>
<g id="glyph-4-0">
<path d="M 3.625 -3.4375 C 3.609375 -3.53125 3.578125 -3.5625 3.46875 -3.5625 C 3.359375 -3.5625 3.328125 -3.53125 3.28125 -3.453125 L 1.328125 -0.625 C 1.109375 -0.3125 0.9375 -0.234375 0.609375 -0.21875 C 0.515625 -0.21875 0.515625 -0.09375 0.515625 -0.078125 C 0.515625 -0.015625 0.578125 0 0.59375 0 C 0.671875 0 0.75 -0.015625 0.828125 -0.015625 C 0.90625 -0.015625 0.984375 -0.015625 1.078125 -0.015625 C 1.171875 -0.015625 1.265625 -0.015625 1.34375 -0.015625 C 1.4375 -0.015625 1.546875 0 1.640625 0 C 1.671875 0 1.75 0 1.75 -0.140625 C 1.75 -0.21875 1.6875 -0.21875 1.65625 -0.21875 C 1.625 -0.21875 1.421875 -0.234375 1.421875 -0.359375 C 1.421875 -0.40625 1.484375 -0.5 1.515625 -0.546875 L 1.890625 -1.078125 C 1.90625 -1.109375 1.90625 -1.109375 2.015625 -1.109375 L 3.515625 -1.109375 C 3.53125 -1.0625 3.53125 -1.03125 3.546875 -0.96875 C 3.5625 -0.875 3.65625 -0.390625 3.65625 -0.328125 C 3.65625 -0.21875 3.34375 -0.21875 3.328125 -0.21875 C 3.25 -0.21875 3.171875 -0.21875 3.171875 -0.078125 C 3.171875 -0.03125 3.203125 0 3.265625 0 C 3.359375 0 3.484375 -0.015625 3.59375 -0.015625 C 3.71875 -0.015625 3.828125 -0.015625 3.953125 -0.015625 C 4.046875 -0.015625 4.15625 -0.015625 4.265625 -0.015625 C 4.359375 -0.015625 4.484375 0 4.578125 0 C 4.671875 0 4.703125 -0.0625 4.703125 -0.140625 C 4.703125 -0.21875 4.625 -0.21875 4.546875 -0.21875 C 4.21875 -0.21875 4.21875 -0.265625 4.203125 -0.375 Z M 3.171875 -2.953125 L 3.484375 -1.34375 L 2.0625 -1.34375 Z M 3.171875 -2.953125 "/>
</g>
</g>
</defs>
<g fill="rgb(0%, 0%, 0%)" fill-opacity="1">
<use xlink:href="#glyph-0-0" x="74.232" y="23.821"/>
</g>
<g fill="rgb(0%, 0%, 0%)" fill-opacity="1">
<use xlink:href="#glyph-0-1" x="80.047318" y="23.821"/>
</g>
<g fill="rgb(0%, 0%, 0%)" fill-opacity="1">
<use xlink:href="#glyph-0-2" x="87.345497" y="23.821"/>
</g>
<g fill="rgb(0%, 0%, 0%)" fill-opacity="1">
<use xlink:href="#glyph-0-3" x="89.659118" y="23.821"/>
</g>
<g fill="rgb(0%, 0%, 0%)" fill-opacity="1">
<use xlink:href="#glyph-0-4" x="92.812432" y="23.821"/>
</g>
<g fill="rgb(0%, 0%, 0%)" fill-opacity="1">
<use xlink:href="#glyph-0-5" x="97.957782" y="23.821"/>
</g>
<g fill="rgb(50%, 50%, 50%)" fill-opacity="1">
<use xlink:href="#glyph-1-0" x="113.312" y="22.377"/>
</g>
<g fill="rgb(50%, 50%, 50%)" fill-opacity="1">
<use xlink:href="#glyph-1-1" x="122.21908" y="22.377"/>
</g>
<g fill="rgb(50%, 50%, 50%)" fill-opacity="1">
<use xlink:href="#glyph-1-2" x="125.963944" y="22.377"/>
</g>
<g fill="rgb(50%, 50%, 50%)" fill-opacity="1">
<use xlink:href="#glyph-1-3" x="129.972824" y="22.377"/>
</g>
<g fill="rgb(50%, 50%, 50%)" fill-opacity="1">
<use xlink:href="#glyph-1-4" x="133.849697" y="22.377"/>
</g>
<g fill="rgb(50%, 50%, 50%)" fill-opacity="1">
<use xlink:href="#glyph-1-5" x="137.983638" y="22.377"/>
</g>
<g fill="rgb(50%, 50%, 50%)" fill-opacity="1">
<use xlink:href="#glyph-1-6" x="139.532997" y="22.377"/>
</g>
<g fill="rgb(50%, 50%, 50%)" fill-opacity="1">
<use xlink:href="#glyph-1-5" x="141.728502" y="22.377"/>
</g>
<g fill="rgb(50%, 50%, 50%)" fill-opacity="1">
<use xlink:href="#glyph-1-2" x="143.277861" y="22.377"/>
</g>
<g fill="rgb(50%, 50%, 50%)" fill-opacity="1">
<use xlink:href="#glyph-1-3" x="147.279794" y="22.377"/>
</g>
<g fill="rgb(50%, 50%, 50%)" fill-opacity="1">
<use xlink:href="#glyph-1-7" x="151.156667" y="22.377"/>
</g>
<g fill="rgb(50%, 50%, 50%)" fill-opacity="1">
<use xlink:href="#glyph-1-8" x="154.901531" y="22.377"/>
</g>
<g fill="rgb(50%, 50%, 50%)" fill-opacity="1">
<use xlink:href="#glyph-1-9" x="158.389326" y="22.377"/>
</g>
<g fill="rgb(50%, 50%, 50%)" fill-opacity="1">
<use xlink:href="#glyph-1-10" x="162.523267" y="22.377"/>
</g>
<g fill="rgb(50%, 50%, 50%)" fill-opacity="1">
<use xlink:href="#glyph-1-7" x="164.843833" y="22.377"/>
</g>
<g fill="rgb(50%, 50%, 50%)" fill-opacity="1">
<use xlink:href="#glyph-1-3" x="168.588697" y="22.377"/>
</g>
<g fill="rgb(50%, 50%, 50%)" fill-opacity="1">
<use xlink:href="#glyph-1-1" x="172.465569" y="22.377"/>
</g>
<g fill="rgb(50%, 50%, 50%)" fill-opacity="1">
<use xlink:href="#glyph-1-11" x="176.210433" y="22.377"/>
</g>
<g fill="rgb(50%, 50%, 50%)" fill-opacity="1">
<use xlink:href="#glyph-1-5" x="180.087306" y="22.377"/>
</g>
<g fill="rgb(50%, 50%, 50%)" fill-opacity="1">
<use xlink:href="#glyph-1-3" x="181.636665" y="22.377"/>
</g>
<g fill="rgb(50%, 50%, 50%)" fill-opacity="1">
<use xlink:href="#glyph-1-12" x="185.513538" y="22.377"/>
</g>
<path fill-rule="nonzero" fill="rgb(90.979004%, 96.076965%, 91.372681%)" fill-opacity="1" stroke-width="0.3985" stroke-linecap="butt" stroke-linejoin="miter" stroke="rgb(29.804993%, 68.624878%, 31.373596%)" stroke-opacity="1" stroke-miterlimit="10" d="M 11.019344 -38.012906 L -0.0001875 -26.993375 L -11.019719 -38.012906 L -0.0001875 -49.036344 Z M 11.019344 -38.012906 " transform="matrix(1, 0, 0, -1, 88.758, 20.616)"/>
<g fill="rgb(0%, 0%, 0%)" fill-opacity="1">
<use xlink:href="#glyph-2-0" x="85.438" y="60.381"/>
<use xlink:href="#glyph-2-1" x="86.539719" y="60.381"/>
</g>
<g fill="rgb(0%, 0%, 0%)" fill-opacity="1">
<use xlink:href="#glyph-2-2" x="89.497489" y="60.381"/>
</g>
<path fill-rule="nonzero" fill="rgb(89.019775%, 94.900513%, 99.215698%)" fill-opacity="1" stroke-width="0.69739" stroke-linecap="butt" stroke-linejoin="miter" stroke="rgb(12.940979%, 58.822632%, 95.292664%)" stroke-opacity="1" stroke-miterlimit="10" d="M -37.336125 -78.028531 L -71.472844 -78.028531 C -73.125187 -78.028531 -74.461125 -79.368375 -74.461125 -81.020719 L -74.461125 -92.051969 C -74.461125 -93.704313 -73.125187 -95.04025 -71.472844 -95.04025 L -37.336125 -95.04025 C -35.683781 -95.04025 -34.347844 -93.704313 -34.347844 -92.051969 L -34.347844 -81.020719 C -34.347844 -79.368375 -35.683781 -78.028531 -37.336125 -78.028531 Z M -37.336125 -78.028531 " transform="matrix(1, 0, 0, -1, 88.758, 20.616)"/>
<g fill="rgb(0%, 0%, 0%)" fill-opacity="1">
<use xlink:href="#glyph-1-9" x="20.273" y="109.603"/>
</g>
<g fill="rgb(0%, 0%, 0%)" fill-opacity="1">
<use xlink:href="#glyph-1-10" x="24.406941" y="109.603"/>
</g>
<g fill="rgb(0%, 0%, 0%)" fill-opacity="1">
<use xlink:href="#glyph-1-7" x="26.727506" y="109.603"/>
</g>
<g fill="rgb(0%, 0%, 0%)" fill-opacity="1">
<use xlink:href="#glyph-1-3" x="30.47237" y="109.603"/>
</g>
<g fill="rgb(0%, 0%, 0%)" fill-opacity="1">
<use xlink:href="#glyph-1-1" x="34.349243" y="109.603"/>
</g>
<g fill="rgb(0%, 0%, 0%)" fill-opacity="1">
<use xlink:href="#glyph-1-11" x="38.094107" y="109.603"/>
</g>
<g fill="rgb(0%, 0%, 0%)" fill-opacity="1">
<use xlink:href="#glyph-1-13" x="43.909416" y="109.603"/>
</g>
<path fill-rule="nonzero" fill="rgb(89.019775%, 94.900513%, 99.215698%)" fill-opacity="1" stroke-width="0.69739" stroke-linecap="butt" stroke-linejoin="miter" stroke="rgb(12.940979%, 58.822632%, 95.292664%)" stroke-opacity="1" stroke-miterlimit="10" d="M 17.199031 -83.680875 L -17.199406 -83.680875 C -18.847844 -83.680875 -20.187687 -85.020719 -20.187687 -86.669156 L -20.187687 -97.704313 C -20.187687 -99.356656 -18.847844 -100.692594 -17.199406 -100.692594 L 17.199031 -100.692594 C 18.847469 -100.692594 20.187313 -99.356656 20.187313 -97.704313 L 20.187313 -86.669156 C 20.187313 -85.020719 18.847469 -83.680875 17.199031 -83.680875 Z M 17.199031 -83.680875 " transform="matrix(1, 0, 0, -1, 88.758, 20.616)"/>
<g fill="rgb(0%, 0%, 0%)" fill-opacity="1">
<use xlink:href="#glyph-1-9" x="74.549" y="115.255"/>
</g>
<g fill="rgb(0%, 0%, 0%)" fill-opacity="1">
<use xlink:href="#glyph-1-10" x="78.682941" y="115.255"/>
</g>
<g fill="rgb(0%, 0%, 0%)" fill-opacity="1">
<use xlink:href="#glyph-1-7" x="81.003506" y="115.255"/>
</g>
<g fill="rgb(0%, 0%, 0%)" fill-opacity="1">
<use xlink:href="#glyph-1-3" x="84.74837" y="115.255"/>
</g>
<g fill="rgb(0%, 0%, 0%)" fill-opacity="1">
<use xlink:href="#glyph-1-1" x="88.625243" y="115.255"/>
</g>
<g fill="rgb(0%, 0%, 0%)" fill-opacity="1">
<use xlink:href="#glyph-1-11" x="92.370107" y="115.255"/>
</g>
<g fill="rgb(0%, 0%, 0%)" fill-opacity="1">
<use xlink:href="#glyph-1-14" x="98.185416" y="115.255"/>
</g>
<path fill-rule="nonzero" fill="rgb(89.019775%, 94.900513%, 99.215698%)" fill-opacity="1" stroke-width="0.69739" stroke-linecap="butt" stroke-linejoin="miter" stroke="rgb(12.940979%, 58.822632%, 95.292664%)" stroke-opacity="1" stroke-miterlimit="10" d="M 71.992 -78.028531 L 37.33575 -78.028531 C 35.683406 -78.028531 34.347469 -79.368375 34.347469 -81.020719 L 34.347469 -92.208219 C 34.347469 -93.856656 35.683406 -95.1965 37.33575 -95.1965 L 71.992 -95.1965 C 73.640438 -95.1965 74.980281 -93.856656 74.980281 -92.208219 L 74.980281 -81.020719 C 74.980281 -79.368375 73.640438 -78.028531 71.992 -78.028531 Z M 71.992 -78.028531 " transform="matrix(1, 0, 0, -1, 88.758, 20.616)"/>
<g fill="rgb(0%, 0%, 0%)" fill-opacity="1">
<use xlink:href="#glyph-1-9" x="129.083" y="109.722"/>
</g>
<g fill="rgb(0%, 0%, 0%)" fill-opacity="1">
<use xlink:href="#glyph-1-10" x="133.216941" y="109.722"/>
</g>
<g fill="rgb(0%, 0%, 0%)" fill-opacity="1">
<use xlink:href="#glyph-1-7" x="135.537506" y="109.722"/>
</g>
<g fill="rgb(0%, 0%, 0%)" fill-opacity="1">
<use xlink:href="#glyph-1-3" x="139.28237" y="109.722"/>
</g>
<g fill="rgb(0%, 0%, 0%)" fill-opacity="1">
<use xlink:href="#glyph-1-1" x="143.159243" y="109.722"/>
</g>
<g fill="rgb(0%, 0%, 0%)" fill-opacity="1">
<use xlink:href="#glyph-1-11" x="146.904107" y="109.722"/>
</g>
<g fill="rgb(0%, 0%, 0%)" fill-opacity="1">
<use xlink:href="#glyph-1-15" x="152.719416" y="109.722"/>
</g>
<path fill="none" stroke-width="0.79701" stroke-linecap="butt" stroke-linejoin="miter" stroke="rgb(0%, 0%, 0%)" stroke-opacity="1" stroke-miterlimit="10" d="M -5.97675 -43.341031 L -41.41425 -74.9465 " transform="matrix(1, 0, 0, -1, 88.758, 20.616)"/>
<path fill-rule="nonzero" fill="rgb(0%, 0%, 0%)" fill-opacity="1" stroke-width="0.79701" stroke-linecap="butt" stroke-linejoin="miter" stroke="rgb(0%, 0%, 0%)" stroke-opacity="1" stroke-miterlimit="10" d="M 5.439781 0.00152359 L 1.285607 1.570644 L 2.664739 0.000511879 L 1.285377 -1.569686 Z M 5.439781 0.00152359 " transform="matrix(-0.74629, 0.66554, 0.66554, 0.74629, 49.18364, 93.92144)"/>
<g fill="rgb(50%, 50%, 50%)" fill-opacity="1">
<use xlink:href="#glyph-1-16" x="55.933" y="83.562"/>
</g>
<path fill="none" stroke-width="0.3985" stroke-linecap="butt" stroke-linejoin="miter" stroke="rgb(69.999695%, 69.999695%, 69.999695%)" stroke-opacity="1" stroke-miterlimit="10" d="M -0.0001875 -49.317594 L -0.0001875 -80.270719 " transform="matrix(1, 0, 0, -1, 88.758, 20.616)"/>
<path fill-rule="nonzero" fill="rgb(69.999695%, 69.999695%, 69.999695%)" fill-opacity="1" stroke-width="0.3985" stroke-linecap="butt" stroke-linejoin="miter" stroke="rgb(69.999695%, 69.999695%, 69.999695%)" stroke-opacity="1" stroke-miterlimit="10" d="M 4.215892 -0.0001875 L 0.641674 1.347469 L 1.817455 -0.0001875 L 0.641674 -1.343937 Z M 4.215892 -0.0001875 " transform="matrix(0, 1, 1, 0, 88.758, 99.16692)"/>
<g fill="rgb(50%, 50%, 50%)" fill-opacity="1">
<use xlink:href="#glyph-1-17" x="92.278" y="89.414"/>
</g>
<path fill="none" stroke-width="0.3985" stroke-linecap="butt" stroke-linejoin="miter" stroke="rgb(69.999695%, 69.999695%, 69.999695%)" stroke-opacity="1" stroke-miterlimit="10" d="M 5.984188 -43.333219 L 42.331844 -75.645719 " transform="matrix(1, 0, 0, -1, 88.758, 20.616)"/>
<path fill-rule="nonzero" fill="rgb(69.999695%, 69.999695%, 69.999695%)" fill-opacity="1" stroke-width="0.3985" stroke-linecap="butt" stroke-linejoin="miter" stroke="rgb(69.999695%, 69.999695%, 69.999695%)" stroke-opacity="1" stroke-miterlimit="10" d="M 4.213971 -0.00219364 L 0.643318 1.344867 L 1.817811 0.000232555 L 0.642859 -1.347488 Z M 4.213971 -0.00219364 " transform="matrix(0.74731, 0.66437, 0.66437, -0.74731, 129.80544, 95.1206)"/>
<g fill="rgb(50%, 50%, 50%)" fill-opacity="1">
<use xlink:href="#glyph-1-18" x="117.58" y="83.596"/>
</g>
<path fill-rule="nonzero" fill="rgb(100%, 95.292664%, 87.841797%)" fill-opacity="1" stroke-width="0.49814" stroke-linecap="butt" stroke-linejoin="miter" stroke="rgb(100%, 59.606934%, 0%)" stroke-opacity="1" stroke-miterlimit="10" d="M -49.359562 -109.813688 L -59.453312 -109.813688 C -61.10175 -109.813688 -62.441594 -111.149625 -62.441594 -112.801969 L -62.441594 -116.704313 C -62.441594 -118.35275 -61.10175 -119.692594 -59.453312 -119.692594 L -49.359562 -119.692594 C -47.707219 -119.692594 -46.367375 -118.35275 -46.367375 -116.704313 L -46.367375 -112.801969 C -46.367375 -111.149625 -47.707219 -109.813688 -49.359562 -109.813688 Z M -49.359562 -109.813688 " transform="matrix(1, 0, 0, -1, 88.758, 20.616)"/>
<g fill="rgb(0%, 0%, 0%)" fill-opacity="1">
<use xlink:href="#glyph-3-0" x="29.306" y="135.632"/>
</g>
<g fill="rgb(0%, 0%, 0%)" fill-opacity="1">
<use xlink:href="#glyph-4-0" x="33.741" y="137.32"/>
</g>
<path fill="none" stroke-width="0.3985" stroke-linecap="butt" stroke-linejoin="miter" stroke="rgb(100%, 59.599304%, 0%)" stroke-opacity="1" stroke-dasharray="2.98883 2.98883" stroke-miterlimit="10" d="M -54.406437 -95.391813 L -54.406437 -106.501188 " transform="matrix(1, 0, 0, -1, 88.758, 20.616)"/>
<path fill-rule="nonzero" fill="rgb(100%, 59.599304%, 0%)" fill-opacity="1" stroke-width="0.3985" stroke-linecap="butt" stroke-linejoin="miter" stroke="rgb(100%, 59.599304%, 0%)" stroke-opacity="1" stroke-miterlimit="10" d="M 4.215541 -0.0015475 L 0.645229 1.346109 L 1.817104 -0.0015475 L 0.645229 -1.345298 Z M 4.215541 -0.0015475 " transform="matrix(0, 1, 1, 0, 34.35311, 125.39774)"/>
<g fill="rgb(50%, 50%, 50%)" fill-opacity="1">
<use xlink:href="#glyph-1-19" x="75.005" y="144.449"/>
</g>
<g fill="rgb(50%, 50%, 50%)" fill-opacity="1">
<use xlink:href="#glyph-1-5" x="76.811428" y="144.449"/>
<use xlink:href="#glyph-1-3" x="78.35384" y="144.449"/>
</g>
<g fill="rgb(50%, 50%, 50%)" fill-opacity="1">
<use xlink:href="#glyph-1-7" x="82.230712" y="144.449"/>
</g>
<g fill="rgb(50%, 50%, 50%)" fill-opacity="1">
<use xlink:href="#glyph-1-1" x="85.975576" y="144.449"/>
</g>
<g fill="rgb(50%, 50%, 50%)" fill-opacity="1">
<use xlink:href="#glyph-1-6" x="89.72044" y="144.449"/>
</g>
<g fill="rgb(50%, 50%, 50%)" fill-opacity="1">
<use xlink:href="#glyph-1-5" x="91.922893" y="144.449"/>
<use xlink:href="#glyph-1-20" x="93.465305" y="144.449"/>
</g>
<g fill="rgb(50%, 50%, 50%)" fill-opacity="1">
<use xlink:href="#glyph-1-21" x="96.9531" y="144.449"/>
</g>
<g fill="rgb(50%, 50%, 50%)" fill-opacity="1">
<use xlink:href="#glyph-1-22" x="100.697964" y="144.449"/>
</g>
<g fill="rgb(50%, 50%, 50%)" fill-opacity="1">
<use xlink:href="#glyph-1-19" x="129.668" y="138.951"/>
</g>
<g fill="rgb(50%, 50%, 50%)" fill-opacity="1">
<use xlink:href="#glyph-1-5" x="131.474428" y="138.951"/>
<use xlink:href="#glyph-1-3" x="133.01684" y="138.951"/>
</g>
<g fill="rgb(50%, 50%, 50%)" fill-opacity="1">
<use xlink:href="#glyph-1-7" x="136.893712" y="138.951"/>
</g>
<g fill="rgb(50%, 50%, 50%)" fill-opacity="1">
<use xlink:href="#glyph-1-1" x="140.638576" y="138.951"/>
</g>
<g fill="rgb(50%, 50%, 50%)" fill-opacity="1">
<use xlink:href="#glyph-1-6" x="144.38344" y="138.951"/>
</g>
<g fill="rgb(50%, 50%, 50%)" fill-opacity="1">
<use xlink:href="#glyph-1-5" x="146.585893" y="138.951"/>
<use xlink:href="#glyph-1-20" x="148.128305" y="138.951"/>
</g>
<g fill="rgb(50%, 50%, 50%)" fill-opacity="1">
<use xlink:href="#glyph-1-21" x="151.6161" y="138.951"/>
</g>
<g fill="rgb(50%, 50%, 50%)" fill-opacity="1">
<use xlink:href="#glyph-1-22" x="155.360964" y="138.951"/>
</g>
</svg>
