<?xml version="1.0" encoding="UTF-8"?>
<svg xmlns="http://www.w3.org/2000/svg" xmlns:xlink="http://www.w3.org/1999/xlink" width="210.48pt" height="122.45pt" viewBox="0 0 210.48 122.45">
<rect width="100%" height="100%" fill="white"/><defs>
<g>
<g id="glyph-0-0">
<path d="M 0.609375 -6.375 L 0.609375 0 L 1.9375 0 L 1.9375 -4.484375 L 1.953125 -4.484375 L 3.515625 0 L 4.59375 0 L 6.15625 -4.515625 L 6.171875 -4.515625 L 6.171875 0 L 7.484375 0 L 7.484375 -6.375 L 5.515625 -6.375 L 4.109375 -2 L 4.078125 -2 L 2.59375 -6.375 Z M 0.609375 -6.375 "/>
</g>
<g id="glyph-0-1">
<path d="M 0.421875 -3.203125 C 0.441406 -3.492188 0.515625 -3.738281 0.640625 -3.9375 C 0.773438 -4.132812 0.941406 -4.289062 1.140625 -4.40625 C 1.347656 -4.53125 1.578125 -4.617188 1.828125 -4.671875 C 2.085938 -4.722656 2.34375 -4.75 2.59375 -4.75 C 2.832031 -4.75 3.070312 -4.726562 3.3125 -4.6875 C 3.550781 -4.65625 3.765625 -4.59375 3.953125 -4.5 C 4.148438 -4.40625 4.3125 -4.273438 4.4375 -4.109375 C 4.5625 -3.941406 4.625 -3.71875 4.625 -3.4375 L 4.625 -1.03125 C 4.625 -0.820312 4.632812 -0.617188 4.65625 -0.421875 C 4.6875 -0.234375 4.734375 -0.09375 4.796875 0 L 3.5 0 C 3.476562 -0.0703125 3.457031 -0.144531 3.4375 -0.21875 C 3.425781 -0.289062 3.421875 -0.367188 3.421875 -0.453125 C 3.210938 -0.242188 2.96875 -0.0976562 2.6875 -0.015625 C 2.414062 0.0664062 2.140625 0.109375 1.859375 0.109375 C 1.640625 0.109375 1.429688 0.0820312 1.234375 0.03125 C 1.046875 -0.0195312 0.878906 -0.101562 0.734375 -0.21875 C 0.597656 -0.332031 0.488281 -0.472656 0.40625 -0.640625 C 0.320312 -0.816406 0.28125 -1.023438 0.28125 -1.265625 C 0.28125 -1.523438 0.328125 -1.738281 0.421875 -1.90625 C 0.515625 -2.070312 0.632812 -2.207031 0.78125 -2.3125 C 0.925781 -2.414062 1.09375 -2.492188 1.28125 -2.546875 C 1.46875 -2.597656 1.65625 -2.632812 1.84375 -2.65625 C 2.039062 -2.6875 2.226562 -2.710938 2.40625 -2.734375 C 2.59375 -2.753906 2.757812 -2.78125 2.90625 -2.8125 C 3.050781 -2.851562 3.164062 -2.90625 3.25 -2.96875 C 3.332031 -3.039062 3.367188 -3.140625 3.359375 -3.265625 C 3.359375 -3.410156 3.332031 -3.519531 3.28125 -3.59375 C 3.238281 -3.675781 3.179688 -3.738281 3.109375 -3.78125 C 3.035156 -3.832031 2.945312 -3.863281 2.84375 -3.875 C 2.75 -3.882812 2.644531 -3.890625 2.53125 -3.890625 C 2.28125 -3.890625 2.082031 -3.835938 1.9375 -3.734375 C 1.800781 -3.628906 1.722656 -3.453125 1.703125 -3.203125 Z M 3.359375 -2.265625 C 3.304688 -2.210938 3.238281 -2.171875 3.15625 -2.140625 C 3.070312 -2.117188 2.984375 -2.097656 2.890625 -2.078125 C 2.804688 -2.066406 2.710938 -2.050781 2.609375 -2.03125 C 2.503906 -2.019531 2.40625 -2.007812 2.3125 -2 C 2.207031 -1.976562 2.109375 -1.953125 2.015625 -1.921875 C 1.929688 -1.890625 1.851562 -1.847656 1.78125 -1.796875 C 1.71875 -1.742188 1.664062 -1.679688 1.625 -1.609375 C 1.582031 -1.535156 1.5625 -1.4375 1.5625 -1.3125 C 1.5625 -1.195312 1.582031 -1.097656 1.625 -1.015625 C 1.664062 -0.941406 1.71875 -0.882812 1.78125 -0.84375 C 1.851562 -0.800781 1.9375 -0.769531 2.03125 -0.75 C 2.132812 -0.726562 2.234375 -0.71875 2.328125 -0.71875 C 2.578125 -0.71875 2.769531 -0.757812 2.90625 -0.84375 C 3.050781 -0.925781 3.15625 -1.023438 3.21875 -1.140625 C 3.28125 -1.265625 3.316406 -1.382812 3.328125 -1.5 C 3.347656 -1.625 3.359375 -1.71875 3.359375 -1.78125 Z M 3.359375 -2.265625 "/>
</g>
<g id="glyph-0-2">
<path d="M 2.8125 -0.828125 C 2.613281 -0.828125 2.441406 -0.867188 2.296875 -0.953125 C 2.148438 -1.035156 2.035156 -1.144531 1.953125 -1.28125 C 1.867188 -1.414062 1.804688 -1.570312 1.765625 -1.75 C 1.722656 -1.925781 1.703125 -2.109375 1.703125 -2.296875 C 1.703125 -2.484375 1.71875 -2.664062 1.75 -2.84375 C 1.789062 -3.03125 1.851562 -3.191406 1.9375 -3.328125 C 2.03125 -3.460938 2.144531 -3.570312 2.28125 -3.65625 C 2.425781 -3.75 2.601562 -3.796875 2.8125 -3.796875 C 3.007812 -3.796875 3.175781 -3.75 3.3125 -3.65625 C 3.457031 -3.570312 3.570312 -3.457031 3.65625 -3.3125 C 3.75 -3.175781 3.816406 -3.019531 3.859375 -2.84375 C 3.898438 -2.664062 3.921875 -2.484375 3.921875 -2.296875 C 3.921875 -2.109375 3.898438 -1.925781 3.859375 -1.75 C 3.828125 -1.570312 3.765625 -1.414062 3.671875 -1.28125 C 3.585938 -1.144531 3.472656 -1.035156 3.328125 -0.953125 C 3.191406 -0.867188 3.019531 -0.828125 2.8125 -0.828125 Z M 0.484375 -4.625 L 0.484375 1.625 L 1.75 1.625 L 1.75 -0.578125 L 1.765625 -0.578125 C 1.921875 -0.347656 2.117188 -0.175781 2.359375 -0.0625 C 2.597656 0.0507812 2.863281 0.109375 3.15625 0.109375 C 3.5 0.109375 3.796875 0.0429688 4.046875 -0.078125 C 4.296875 -0.210938 4.503906 -0.390625 4.671875 -0.609375 C 4.847656 -0.828125 4.976562 -1.078125 5.0625 -1.359375 C 5.144531 -1.648438 5.1875 -1.953125 5.1875 -2.265625 C 5.1875 -2.585938 5.144531 -2.898438 5.0625 -3.203125 C 4.976562 -3.503906 4.847656 -3.765625 4.671875 -3.984375 C 4.503906 -4.210938 4.285156 -4.394531 4.015625 -4.53125 C 3.753906 -4.675781 3.441406 -4.75 3.078125 -4.75 C 2.796875 -4.75 2.535156 -4.691406 2.296875 -4.578125 C 2.054688 -4.460938 1.859375 -4.28125 1.703125 -4.03125 L 1.6875 -4.03125 L 1.6875 -4.625 Z M 0.484375 -4.625 "/>
</g>
<g id="glyph-1-0">
<path d="M 0.90625 -2.21875 L 0.90625 -1.65625 L 6.046875 -1.65625 L 6.046875 -2.21875 Z M 0.90625 -2.21875 "/>
</g>
<g id="glyph-1-1">
<path d="M 1.078125 -4.234375 L 1.078125 -4.96875 L 0.484375 -4.96875 L 0.484375 -4.234375 Z M 0.484375 -3.59375 L 0.484375 0 L 1.078125 0 L 1.078125 -3.59375 Z M 0.484375 -3.59375 "/>
</g>
<g id="glyph-1-2">
<path d="M 0.4375 -3.59375 L 0.4375 0 L 1.03125 0 L 1.03125 -2.03125 C 1.03125 -2.195312 1.050781 -2.347656 1.09375 -2.484375 C 1.144531 -2.617188 1.210938 -2.734375 1.296875 -2.828125 C 1.390625 -2.929688 1.5 -3.007812 1.625 -3.0625 C 1.757812 -3.125 1.914062 -3.15625 2.09375 -3.15625 C 2.320312 -3.15625 2.5 -3.085938 2.625 -2.953125 C 2.757812 -2.828125 2.828125 -2.65625 2.828125 -2.4375 L 2.828125 0 L 3.421875 0 L 3.421875 -2.359375 C 3.421875 -2.554688 3.398438 -2.734375 3.359375 -2.890625 C 3.316406 -3.054688 3.25 -3.195312 3.15625 -3.3125 C 3.0625 -3.425781 2.929688 -3.515625 2.765625 -3.578125 C 2.609375 -3.640625 2.414062 -3.671875 2.1875 -3.671875 C 1.65625 -3.671875 1.265625 -3.457031 1.015625 -3.03125 L 1 -3.03125 L 1 -3.59375 Z M 0.4375 -3.59375 "/>
</g>
<g id="glyph-1-3">
<path d="M 0.875 -1.765625 C 0.875 -1.941406 0.890625 -2.113281 0.921875 -2.28125 C 0.960938 -2.445312 1.023438 -2.59375 1.109375 -2.71875 C 1.191406 -2.851562 1.300781 -2.957031 1.4375 -3.03125 C 1.582031 -3.113281 1.753906 -3.15625 1.953125 -3.15625 C 2.160156 -3.15625 2.332031 -3.113281 2.46875 -3.03125 C 2.613281 -2.957031 2.734375 -2.859375 2.828125 -2.734375 C 2.921875 -2.609375 2.988281 -2.460938 3.03125 -2.296875 C 3.070312 -2.140625 3.09375 -1.972656 3.09375 -1.796875 C 3.09375 -1.628906 3.070312 -1.460938 3.03125 -1.296875 C 2.988281 -1.140625 2.921875 -0.992188 2.828125 -0.859375 C 2.742188 -0.734375 2.628906 -0.628906 2.484375 -0.546875 C 2.347656 -0.472656 2.179688 -0.4375 1.984375 -0.4375 C 1.796875 -0.4375 1.628906 -0.472656 1.484375 -0.546875 C 1.347656 -0.617188 1.234375 -0.71875 1.140625 -0.84375 C 1.054688 -0.96875 0.988281 -1.109375 0.9375 -1.265625 C 0.894531 -1.429688 0.875 -1.597656 0.875 -1.765625 Z M 3.65625 0 L 3.65625 -4.96875 L 3.0625 -4.96875 L 3.0625 -3.109375 L 3.046875 -3.109375 C 2.984375 -3.222656 2.90625 -3.3125 2.8125 -3.375 C 2.71875 -3.445312 2.613281 -3.503906 2.5 -3.546875 C 2.394531 -3.597656 2.289062 -3.628906 2.1875 -3.640625 C 2.082031 -3.660156 1.984375 -3.671875 1.890625 -3.671875 C 1.617188 -3.671875 1.378906 -3.617188 1.171875 -3.515625 C 0.960938 -3.421875 0.789062 -3.289062 0.65625 -3.125 C 0.519531 -2.957031 0.414062 -2.757812 0.34375 -2.53125 C 0.28125 -2.300781 0.25 -2.0625 0.25 -1.8125 C 0.25 -1.550781 0.28125 -1.304688 0.34375 -1.078125 C 0.414062 -0.859375 0.519531 -0.660156 0.65625 -0.484375 C 0.800781 -0.316406 0.972656 -0.179688 1.171875 -0.078125 C 1.378906 0.0234375 1.625 0.078125 1.90625 0.078125 C 2.15625 0.078125 2.382812 0.0351562 2.59375 -0.046875 C 2.800781 -0.140625 2.953125 -0.285156 3.046875 -0.484375 L 3.0625 -0.484375 L 3.0625 0 Z M 3.65625 0 "/>
</g>
<g id="glyph-1-4">
<path d="M 2.9375 -2.140625 L 0.875 -2.140625 C 0.882812 -2.273438 0.914062 -2.40625 0.96875 -2.53125 C 1.019531 -2.65625 1.085938 -2.765625 1.171875 -2.859375 C 1.265625 -2.953125 1.367188 -3.023438 1.484375 -3.078125 C 1.609375 -3.128906 1.75 -3.15625 1.90625 -3.15625 C 2.050781 -3.15625 2.1875 -3.128906 2.3125 -3.078125 C 2.4375 -3.023438 2.539062 -2.953125 2.625 -2.859375 C 2.71875 -2.765625 2.789062 -2.65625 2.84375 -2.53125 C 2.894531 -2.40625 2.925781 -2.273438 2.9375 -2.140625 Z M 3.515625 -1.140625 L 2.921875 -1.140625 C 2.867188 -0.898438 2.765625 -0.722656 2.609375 -0.609375 C 2.453125 -0.492188 2.25 -0.4375 2 -0.4375 C 1.800781 -0.4375 1.628906 -0.46875 1.484375 -0.53125 C 1.335938 -0.59375 1.21875 -0.675781 1.125 -0.78125 C 1.039062 -0.894531 0.976562 -1.023438 0.9375 -1.171875 C 0.894531 -1.316406 0.875 -1.46875 0.875 -1.625 L 3.5625 -1.625 C 3.570312 -1.84375 3.550781 -2.070312 3.5 -2.3125 C 3.457031 -2.550781 3.367188 -2.769531 3.234375 -2.96875 C 3.109375 -3.175781 2.941406 -3.34375 2.734375 -3.46875 C 2.523438 -3.601562 2.257812 -3.671875 1.9375 -3.671875 C 1.695312 -3.671875 1.472656 -3.625 1.265625 -3.53125 C 1.054688 -3.445312 0.875 -3.320312 0.71875 -3.15625 C 0.570312 -2.988281 0.457031 -2.789062 0.375 -2.5625 C 0.289062 -2.332031 0.25 -2.082031 0.25 -1.8125 C 0.257812 -1.53125 0.300781 -1.273438 0.375 -1.046875 C 0.445312 -0.816406 0.550781 -0.617188 0.6875 -0.453125 C 0.832031 -0.285156 1.007812 -0.15625 1.21875 -0.0625 C 1.4375 0.0273438 1.6875 0.078125 1.96875 0.078125 C 2.382812 0.078125 2.722656 -0.0195312 2.984375 -0.21875 C 3.253906 -0.425781 3.429688 -0.734375 3.515625 -1.140625 Z M 3.515625 -1.140625 "/>
</g>
<g id="glyph-1-5">
<path d="M 0.46875 -3.59375 L 0.46875 1.375 L 1.0625 1.375 L 1.0625 -0.484375 L 1.078125 -0.484375 C 1.140625 -0.367188 1.21875 -0.273438 1.3125 -0.203125 C 1.40625 -0.140625 1.503906 -0.0859375 1.609375 -0.046875 C 1.710938 -0.00390625 1.816406 0.0234375 1.921875 0.046875 C 2.035156 0.0664062 2.140625 0.078125 2.234375 0.078125 C 2.503906 0.078125 2.742188 0.0273438 2.953125 -0.0625 C 3.160156 -0.164062 3.332031 -0.300781 3.46875 -0.46875 C 3.601562 -0.632812 3.703125 -0.832031 3.765625 -1.0625 C 3.835938 -1.289062 3.875 -1.53125 3.875 -1.78125 C 3.875 -2.039062 3.835938 -2.28125 3.765625 -2.5 C 3.703125 -2.726562 3.597656 -2.929688 3.453125 -3.109375 C 3.316406 -3.285156 3.144531 -3.421875 2.9375 -3.515625 C 2.738281 -3.617188 2.5 -3.671875 2.21875 -3.671875 C 1.96875 -3.671875 1.738281 -3.625 1.53125 -3.53125 C 1.320312 -3.445312 1.171875 -3.304688 1.078125 -3.109375 L 1.0625 -3.109375 L 1.0625 -3.59375 Z M 3.25 -1.828125 C 3.25 -1.648438 3.226562 -1.476562 3.1875 -1.3125 C 3.15625 -1.144531 3.097656 -0.992188 3.015625 -0.859375 C 2.929688 -0.734375 2.816406 -0.628906 2.671875 -0.546875 C 2.535156 -0.472656 2.367188 -0.4375 2.171875 -0.4375 C 1.960938 -0.4375 1.785156 -0.472656 1.640625 -0.546875 C 1.503906 -0.628906 1.390625 -0.734375 1.296875 -0.859375 C 1.203125 -0.984375 1.132812 -1.125 1.09375 -1.28125 C 1.050781 -1.445312 1.03125 -1.617188 1.03125 -1.796875 C 1.03125 -1.960938 1.050781 -2.125 1.09375 -2.28125 C 1.132812 -2.445312 1.195312 -2.59375 1.28125 -2.71875 C 1.375 -2.851562 1.488281 -2.957031 1.625 -3.03125 C 1.757812 -3.113281 1.929688 -3.15625 2.140625 -3.15625 C 2.328125 -3.15625 2.488281 -3.117188 2.625 -3.046875 C 2.769531 -2.972656 2.882812 -2.875 2.96875 -2.75 C 3.0625 -2.625 3.128906 -2.476562 3.171875 -2.3125 C 3.222656 -2.15625 3.25 -1.992188 3.25 -1.828125 Z M 3.25 -1.828125 "/>
</g>
<g id="glyph-1-6">
<path d="M 1.265625 -3.59375 L 1.265625 -4.671875 L 0.671875 -4.671875 L 0.671875 -3.59375 L 0.0625 -3.59375 L 0.0625 -3.078125 L 0.671875 -3.078125 L 0.671875 -0.78125 C 0.671875 -0.613281 0.6875 -0.476562 0.71875 -0.375 C 0.75 -0.28125 0.796875 -0.203125 0.859375 -0.140625 C 0.929688 -0.0859375 1.019531 -0.0507812 1.125 -0.03125 C 1.238281 -0.0078125 1.375 0 1.53125 0 L 1.984375 0 L 1.984375 -0.515625 L 1.703125 -0.515625 C 1.617188 -0.515625 1.546875 -0.519531 1.484375 -0.53125 C 1.421875 -0.539062 1.375 -0.554688 1.34375 -0.578125 C 1.3125 -0.597656 1.289062 -0.628906 1.28125 -0.671875 C 1.269531 -0.710938 1.265625 -0.769531 1.265625 -0.84375 L 1.265625 -3.078125 L 1.984375 -3.078125 L 1.984375 -3.59375 Z M 1.265625 -3.59375 "/>
</g>
<g id="glyph-1-7">
<path d="M 0.421875 -3.59375 L 0.421875 0 L 1.015625 0 L 1.015625 -1.59375 C 1.015625 -1.832031 1.035156 -2.039062 1.078125 -2.21875 C 1.128906 -2.394531 1.203125 -2.546875 1.296875 -2.671875 C 1.398438 -2.796875 1.535156 -2.890625 1.703125 -2.953125 C 1.867188 -3.015625 2.070312 -3.046875 2.3125 -3.046875 L 2.3125 -3.671875 C 1.988281 -3.679688 1.722656 -3.617188 1.515625 -3.484375 C 1.304688 -3.347656 1.132812 -3.132812 1 -2.84375 L 0.984375 -2.84375 L 0.984375 -3.59375 Z M 0.421875 -3.59375 "/>
</g>
<g id="glyph-1-8">
<path d="M 0.875 -1.796875 C 0.875 -2.015625 0.898438 -2.207031 0.953125 -2.375 C 1.015625 -2.539062 1.097656 -2.679688 1.203125 -2.796875 C 1.304688 -2.910156 1.425781 -3 1.5625 -3.0625 C 1.695312 -3.125 1.84375 -3.15625 2 -3.15625 C 2.144531 -3.15625 2.285156 -3.125 2.421875 -3.0625 C 2.566406 -3 2.6875 -2.910156 2.78125 -2.796875 C 2.882812 -2.679688 2.960938 -2.539062 3.015625 -2.375 C 3.078125 -2.207031 3.109375 -2.015625 3.109375 -1.796875 C 3.109375 -1.578125 3.078125 -1.378906 3.015625 -1.203125 C 2.960938 -1.035156 2.882812 -0.894531 2.78125 -0.78125 C 2.6875 -0.675781 2.566406 -0.59375 2.421875 -0.53125 C 2.285156 -0.46875 2.144531 -0.4375 2 -0.4375 C 1.84375 -0.4375 1.695312 -0.46875 1.5625 -0.53125 C 1.425781 -0.59375 1.304688 -0.675781 1.203125 -0.78125 C 1.097656 -0.894531 1.015625 -1.035156 0.953125 -1.203125 C 0.898438 -1.378906 0.875 -1.578125 0.875 -1.796875 Z M 0.25 -1.796875 C 0.25 -1.523438 0.285156 -1.273438 0.359375 -1.046875 C 0.429688 -0.828125 0.539062 -0.628906 0.6875 -0.453125 C 0.84375 -0.285156 1.03125 -0.15625 1.25 -0.0625 C 1.46875 0.0273438 1.71875 0.078125 2 0.078125 C 2.28125 0.078125 2.53125 0.0273438 2.75 -0.0625 C 2.96875 -0.15625 3.148438 -0.285156 3.296875 -0.453125 C 3.441406 -0.628906 3.550781 -0.828125 3.625 -1.046875 C 3.695312 -1.273438 3.734375 -1.523438 3.734375 -1.796875 C 3.734375 -2.054688 3.695312 -2.300781 3.625 -2.53125 C 3.550781 -2.757812 3.441406 -2.957031 3.296875 -3.125 C 3.148438 -3.300781 2.96875 -3.4375 2.75 -3.53125 C 2.53125 -3.625 2.28125 -3.671875 2 -3.671875 C 1.71875 -3.671875 1.46875 -3.625 1.25 -3.53125 C 1.03125 -3.4375 0.84375 -3.300781 0.6875 -3.125 C 0.539062 -2.957031 0.429688 -2.757812 0.359375 -2.53125 C 0.285156 -2.300781 0.25 -2.054688 0.25 -1.796875 Z M 0.25 -1.796875 "/>
</g>
<g id="glyph-1-9">
<path d="M 0.484375 -4.96875 L 0.484375 0 L 1.078125 0 L 1.078125 -1.359375 L 1.625 -1.875 L 2.859375 0 L 3.609375 0 L 2.078125 -2.28125 L 3.5 -3.59375 L 2.71875 -3.59375 L 1.078125 -2.015625 L 1.078125 -4.96875 Z M 0.484375 -4.96875 "/>
</g>
<g id="glyph-1-10">
<path d="M 0.484375 -4.96875 L 0.484375 0 L 1.078125 0 L 1.078125 -4.96875 Z M 0.484375 -4.96875 "/>
</g>
<g id="glyph-2-0">
<path d="M 3.09375 -1.953125 C 2.859375 -1.890625 2.859375 -1.671875 2.859375 -1.65625 C 2.859375 -1.578125 2.921875 -1.453125 3.09375 -1.453125 C 3.234375 -1.453125 3.40625 -1.578125 3.40625 -1.796875 C 3.40625 -2.09375 3.078125 -2.203125 2.8125 -2.203125 C 2.484375 -2.203125 2.265625 -2 2.171875 -1.859375 C 2.015625 -2.140625 1.6875 -2.203125 1.515625 -2.203125 C 0.890625 -2.203125 0.53125 -1.609375 0.53125 -1.4375 C 0.53125 -1.359375 0.609375 -1.359375 0.640625 -1.359375 C 0.6875 -1.359375 0.71875 -1.359375 0.75 -1.421875 C 0.890625 -1.90625 1.296875 -2.03125 1.484375 -2.03125 C 1.65625 -2.03125 1.84375 -1.96875 1.84375 -1.703125 C 1.84375 -1.578125 1.75 -1.234375 1.578125 -0.5625 C 1.515625 -0.28125 1.28125 -0.109375 1.0625 -0.109375 C 1.03125 -0.109375 0.890625 -0.109375 0.765625 -0.1875 C 0.984375 -0.28125 0.984375 -0.46875 0.984375 -0.484375 C 0.984375 -0.625 0.875 -0.6875 0.765625 -0.6875 C 0.640625 -0.6875 0.46875 -0.59375 0.46875 -0.359375 C 0.46875 -0.046875 0.796875 0.0625 1.0625 0.0625 C 1.328125 0.0625 1.5625 -0.109375 1.671875 -0.28125 C 1.875 0.015625 2.1875 0.0625 2.34375 0.0625 C 2.96875 0.0625 3.328125 -0.53125 3.328125 -0.71875 C 3.328125 -0.78125 3.25 -0.78125 3.21875 -0.78125 C 3.140625 -0.78125 3.125 -0.75 3.109375 -0.71875 C 2.96875 -0.265625 2.59375 -0.109375 2.375 -0.109375 C 2.21875 -0.109375 2.015625 -0.171875 2.015625 -0.453125 C 2.015625 -0.515625 2.015625 -0.546875 2.046875 -0.71875 C 2.140625 -1.0625 2.265625 -1.609375 2.3125 -1.703125 C 2.375 -1.828125 2.546875 -2.03125 2.796875 -2.03125 C 2.8125 -2.03125 2.984375 -2.03125 3.09375 -1.953125 Z M 3.09375 -1.953125 "/>
</g>
<g id="glyph-3-0">
<path d="M 1.984375 -3.171875 C 1.984375 -3.3125 1.96875 -3.3125 1.796875 -3.3125 C 1.453125 -3 0.890625 -3 0.796875 -3 L 0.71875 -3 L 0.71875 -2.78125 L 0.796875 -2.78125 C 0.90625 -2.78125 1.234375 -2.796875 1.53125 -2.921875 L 1.53125 -0.421875 C 1.53125 -0.28125 1.53125 -0.21875 1 -0.21875 L 0.75 -0.21875 L 0.75 0 C 1.015625 -0.015625 1.46875 -0.015625 1.75 -0.015625 C 2.046875 -0.015625 2.484375 -0.015625 2.765625 0 L 2.765625 -0.21875 L 2.515625 -0.21875 C 1.984375 -0.21875 1.984375 -0.28125 1.984375 -0.421875 Z M 1.984375 -3.171875 "/>
</g>
<g id="glyph-3-1">
<path d="M 2.9375 -0.96875 L 2.71875 -0.96875 C 2.71875 -0.875 2.65625 -0.5625 2.578125 -0.515625 C 2.546875 -0.484375 2.125 -0.484375 2.046875 -0.484375 L 1.078125 -0.484375 C 1.40625 -0.71875 1.765625 -1 2.0625 -1.203125 C 2.515625 -1.515625 2.9375 -1.796875 2.9375 -2.328125 C 2.9375 -2.96875 2.328125 -3.3125 1.625 -3.3125 C 0.953125 -3.3125 0.453125 -2.9375 0.453125 -2.4375 C 0.453125 -2.1875 0.671875 -2.140625 0.75 -2.140625 C 0.875 -2.140625 1.03125 -2.234375 1.03125 -2.4375 C 1.03125 -2.609375 0.90625 -2.71875 0.75 -2.71875 C 0.890625 -2.953125 1.1875 -3.09375 1.515625 -3.09375 C 2 -3.09375 2.40625 -2.8125 2.40625 -2.328125 C 2.40625 -1.90625 2.109375 -1.578125 1.734375 -1.265625 L 0.515625 -0.234375 C 0.46875 -0.1875 0.453125 -0.1875 0.453125 -0.15625 L 0.453125 0 L 2.765625 0 Z M 2.9375 -0.96875 "/>
</g>
<g id="glyph-3-2">
<path d="M 1.640625 -1.65625 C 2.109375 -1.65625 2.40625 -1.359375 2.40625 -0.875 C 2.40625 -0.359375 2.09375 -0.09375 1.65625 -0.09375 C 1.59375 -0.09375 1 -0.09375 0.75 -0.359375 C 0.953125 -0.390625 1.015625 -0.53125 1.015625 -0.65625 C 1.015625 -0.84375 0.875 -0.96875 0.703125 -0.96875 C 0.546875 -0.96875 0.40625 -0.859375 0.40625 -0.640625 C 0.40625 -0.125 0.984375 0.109375 1.671875 0.109375 C 2.484375 0.109375 2.984375 -0.390625 2.984375 -0.875 C 2.984375 -1.28125 2.625 -1.625 2.0625 -1.75 C 2.65625 -1.953125 2.8125 -2.328125 2.8125 -2.609375 C 2.8125 -3.015625 2.3125 -3.3125 1.6875 -3.3125 C 1.0625 -3.3125 0.578125 -3.0625 0.578125 -2.609375 C 0.578125 -2.375 0.765625 -2.3125 0.859375 -2.3125 C 1 -2.3125 1.140625 -2.421875 1.140625 -2.609375 C 1.140625 -2.71875 1.078125 -2.859375 0.90625 -2.890625 C 1.109375 -3.109375 1.5625 -3.125 1.671875 -3.125 C 2.03125 -3.125 2.28125 -2.953125 2.28125 -2.609375 C 2.28125 -2.3125 2.09375 -1.859375 1.578125 -1.828125 C 1.4375 -1.828125 1.421875 -1.828125 1.28125 -1.8125 C 1.234375 -1.8125 1.171875 -1.8125 1.171875 -1.734375 C 1.171875 -1.65625 1.21875 -1.65625 1.3125 -1.65625 Z M 1.640625 -1.65625 "/>
</g>
<g id="glyph-3-3">
<path d="M 3.078125 -0.8125 L 3.078125 -1.03125 L 2.453125 -1.03125 L 2.453125 -3.21875 C 2.453125 -3.34375 2.453125 -3.375 2.3125 -3.375 C 2.21875 -3.375 2.21875 -3.375 2.15625 -3.296875 L 0.3125 -1.03125 L 0.3125 -0.8125 L 1.96875 -0.8125 L 1.96875 -0.421875 C 1.96875 -0.265625 1.96875 -0.21875 1.546875 -0.21875 L 1.359375 -0.21875 L 1.359375 0 C 1.59375 -0.015625 1.921875 -0.015625 2.21875 -0.015625 C 2.5 -0.015625 2.828125 -0.015625 3.0625 0 L 3.0625 -0.21875 L 2.890625 -0.21875 C 2.453125 -0.21875 2.453125 -0.265625 2.453125 -0.421875 L 2.453125 -0.8125 Z M 2.015625 -2.84375 L 2.015625 -1.03125 L 0.546875 -1.03125 Z M 2.015625 -2.84375 "/>
</g>
<g id="glyph-4-0">
<path d="M 2.4375 -1.640625 L 3.578125 -1.640625 C 3.671875 -1.640625 3.75 -1.640625 3.84375 -1.71875 C 3.859375 -1.734375 3.96875 -1.828125 3.96875 -1.96875 C 3.96875 -2.21875 3.734375 -2.21875 3.65625 -2.21875 L 1.546875 -2.21875 C 1.421875 -2.21875 1.15625 -2.21875 0.78125 -1.953125 C 0.6875 -1.890625 0.359375 -1.609375 0.359375 -1.515625 C 0.359375 -1.40625 0.4375 -1.40625 0.5625 -1.40625 C 0.703125 -1.40625 0.703125 -1.40625 0.75 -1.453125 C 0.84375 -1.53125 0.953125 -1.640625 1.390625 -1.640625 L 1.96875 -1.640625 L 1.609375 -0.515625 C 1.578125 -0.40625 1.53125 -0.25 1.53125 -0.1875 C 1.53125 -0.03125 1.65625 0.0625 1.796875 0.0625 C 1.828125 0.0625 2.109375 0.0625 2.171875 -0.28125 Z M 2.4375 -1.640625 "/>
</g>
</g>
</defs>
<g fill="rgb(0%, 0%, 0%)" fill-opacity="1">
<use xlink:href="#glyph-0-0" x="20.386" y="23.676"/>
</g>
<g fill="rgb(0%, 0%, 0%)" fill-opacity="1">
<use xlink:href="#glyph-0-1" x="28.514939" y="23.676"/>
</g>
<g fill="rgb(0%, 0%, 0%)" fill-opacity="1">
<use xlink:href="#glyph-0-2" x="33.660289" y="23.676"/>
</g>
<g fill="rgb(50%, 50%, 50%)" fill-opacity="1">
<use xlink:href="#glyph-1-0" x="49.172" y="23.089"/>
</g>
<g fill="rgb(50%, 50%, 50%)" fill-opacity="1">
<use xlink:href="#glyph-1-1" x="58.07908" y="23.089"/>
</g>
<g fill="rgb(50%, 50%, 50%)" fill-opacity="1">
<use xlink:href="#glyph-1-2" x="59.628439" y="23.089"/>
</g>
<g fill="rgb(50%, 50%, 50%)" fill-opacity="1">
<use xlink:href="#glyph-1-3" x="63.505311" y="23.089"/>
</g>
<g fill="rgb(50%, 50%, 50%)" fill-opacity="1">
<use xlink:href="#glyph-1-4" x="67.639252" y="23.089"/>
</g>
<g fill="rgb(50%, 50%, 50%)" fill-opacity="1">
<use xlink:href="#glyph-1-5" x="71.391064" y="23.089"/>
</g>
<g fill="rgb(50%, 50%, 50%)" fill-opacity="1">
<use xlink:href="#glyph-1-4" x="75.525005" y="23.089"/>
</g>
<g fill="rgb(50%, 50%, 50%)" fill-opacity="1">
<use xlink:href="#glyph-1-2" x="79.26987" y="23.089"/>
</g>
<g fill="rgb(50%, 50%, 50%)" fill-opacity="1">
<use xlink:href="#glyph-1-3" x="83.146742" y="23.089"/>
</g>
<g fill="rgb(50%, 50%, 50%)" fill-opacity="1">
<use xlink:href="#glyph-1-4" x="87.280683" y="23.089"/>
</g>
<g fill="rgb(50%, 50%, 50%)" fill-opacity="1">
<use xlink:href="#glyph-1-2" x="91.025547" y="23.089"/>
</g>
<g fill="rgb(50%, 50%, 50%)" fill-opacity="1">
<use xlink:href="#glyph-1-6" x="94.90242" y="23.089"/>
</g>
<g fill="rgb(50%, 50%, 50%)" fill-opacity="1">
<use xlink:href="#glyph-1-7" x="99.036361" y="23.089"/>
</g>
<g fill="rgb(50%, 50%, 50%)" fill-opacity="1">
<use xlink:href="#glyph-1-4" x="101.245761" y="23.089"/>
</g>
<g fill="rgb(50%, 50%, 50%)" fill-opacity="1">
<use xlink:href="#glyph-1-5" x="104.983677" y="23.089"/>
</g>
<g fill="rgb(50%, 50%, 50%)" fill-opacity="1">
<use xlink:href="#glyph-1-4" x="109.117618" y="23.089"/>
</g>
<g fill="rgb(50%, 50%, 50%)" fill-opacity="1">
<use xlink:href="#glyph-1-6" x="112.862483" y="23.089"/>
</g>
<g fill="rgb(50%, 50%, 50%)" fill-opacity="1">
<use xlink:href="#glyph-1-1" x="115.057987" y="23.089"/>
</g>
<g fill="rgb(50%, 50%, 50%)" fill-opacity="1">
<use xlink:href="#glyph-1-6" x="116.607347" y="23.089"/>
</g>
<g fill="rgb(50%, 50%, 50%)" fill-opacity="1">
<use xlink:href="#glyph-1-1" x="118.802852" y="23.089"/>
</g>
<g fill="rgb(50%, 50%, 50%)" fill-opacity="1">
<use xlink:href="#glyph-1-8" x="120.352211" y="23.089"/>
</g>
<g fill="rgb(50%, 50%, 50%)" fill-opacity="1">
<use xlink:href="#glyph-1-2" x="124.354144" y="23.089"/>
</g>
<path fill-rule="nonzero" fill="rgb(90.979004%, 96.076965%, 91.372681%)" fill-opacity="1" stroke-width="0.49814" stroke-linecap="butt" stroke-linejoin="miter" stroke="rgb(29.804993%, 68.624878%, 31.373596%)" stroke-opacity="1" stroke-miterlimit="10" d="M 4.910781 -21.956188 L -4.913437 -21.956188 C -6.561875 -21.956188 -7.901719 -23.292125 -7.901719 -24.944469 L -7.901719 -30.573375 C -7.901719 -32.225719 -6.561875 -33.565563 -4.913437 -33.565563 L 4.910781 -33.565563 C 6.563125 -33.565563 7.902969 -32.225719 7.902969 -30.573375 L 7.902969 -24.944469 C 7.902969 -23.292125 6.563125 -21.956188 4.910781 -21.956188 Z M 4.910781 -21.956188 " transform="matrix(1, 0, 0, -1, 29.765, 21.286)"/>
<g fill="rgb(0%, 0%, 0%)" fill-opacity="1">
<use xlink:href="#glyph-2-0" x="25.849" y="49.371"/>
</g>
<g fill="rgb(0%, 0%, 0%)" fill-opacity="1">
<use xlink:href="#glyph-3-0" x="29.793" y="50.865"/>
</g>
<path fill-rule="nonzero" fill="rgb(90.979004%, 96.076965%, 91.372681%)" fill-opacity="1" stroke-width="0.49814" stroke-linecap="butt" stroke-linejoin="miter" stroke="rgb(29.804993%, 68.624878%, 31.373596%)" stroke-opacity="1" stroke-miterlimit="10" d="M 55.227188 -21.956188 L 45.402969 -21.956188 C 43.754531 -21.956188 42.414688 -23.292125 42.414688 -24.944469 L 42.414688 -30.573375 C 42.414688 -32.225719 43.754531 -33.565563 45.402969 -33.565563 L 55.227188 -33.565563 C 56.879531 -33.565563 58.215469 -32.225719 58.215469 -30.573375 L 58.215469 -24.944469 C 58.215469 -23.292125 56.879531 -21.956188 55.227188 -21.956188 Z M 55.227188 -21.956188 " transform="matrix(1, 0, 0, -1, 29.765, 21.286)"/>
<g fill="rgb(0%, 0%, 0%)" fill-opacity="1">
<use xlink:href="#glyph-2-0" x="76.165" y="49.371"/>
</g>
<g fill="rgb(0%, 0%, 0%)" fill-opacity="1">
<use xlink:href="#glyph-3-1" x="80.109" y="50.865"/>
</g>
<path fill-rule="nonzero" fill="rgb(90.979004%, 96.076965%, 91.372681%)" fill-opacity="1" stroke-width="0.49814" stroke-linecap="butt" stroke-linejoin="miter" stroke="rgb(29.804993%, 68.624878%, 31.373596%)" stroke-opacity="1" stroke-miterlimit="10" d="M 105.543594 -21.956188 L 95.719375 -21.956188 C 94.070938 -21.956188 92.731094 -23.292125 92.731094 -24.944469 L 92.731094 -30.573375 C 92.731094 -32.225719 94.070938 -33.565563 95.719375 -33.565563 L 105.543594 -33.565563 C 107.195938 -33.565563 108.531875 -32.225719 108.531875 -30.573375 L 108.531875 -24.944469 C 108.531875 -23.292125 107.195938 -21.956188 105.543594 -21.956188 Z M 105.543594 -21.956188 " transform="matrix(1, 0, 0, -1, 29.765, 21.286)"/>
<g fill="rgb(0%, 0%, 0%)" fill-opacity="1">
<use xlink:href="#glyph-2-0" x="126.482" y="49.371"/>
</g>
<g fill="rgb(0%, 0%, 0%)" fill-opacity="1">
<use xlink:href="#glyph-3-2" x="130.426" y="50.865"/>
</g>
<path fill-rule="nonzero" fill="rgb(90.979004%, 96.076965%, 91.372681%)" fill-opacity="1" stroke-width="0.49814" stroke-linecap="butt" stroke-linejoin="miter" stroke="rgb(29.804993%, 68.624878%, 31.373596%)" stroke-opacity="1" stroke-miterlimit="10" d="M 155.86 -21.956188 L 146.035781 -21.956188 C 144.387344 -21.956188 143.0475 -23.292125 143.0475 -24.944469 L 143.0475 -30.573375 C 143.0475 -32.225719 144.387344 -33.565563 146.035781 -33.565563 L 155.86 -33.565563 C 157.512344 -33.565563 158.848281 -32.225719 158.848281 -30.573375 L 158.848281 -24.944469 C 158.848281 -23.292125 157.512344 -21.956188 155.86 -21.956188 Z M 155.86 -21.956188 " transform="matrix(1, 0, 0, -1, 29.765, 21.286)"/>
<g fill="rgb(0%, 0%, 0%)" fill-opacity="1">
<use xlink:href="#glyph-2-0" x="176.798" y="49.371"/>
</g>
<g fill="rgb(0%, 0%, 0%)" fill-opacity="1">
<use xlink:href="#glyph-3-3" x="180.742" y="50.865"/>
</g>
<path fill-rule="nonzero" fill="rgb(89.019775%, 94.900513%, 99.215698%)" fill-opacity="1" stroke-width="0.69739" stroke-linecap="butt" stroke-linejoin="miter" stroke="rgb(12.940979%, 58.822632%, 95.292664%)" stroke-opacity="1" stroke-miterlimit="10" d="M 12.481094 -48.335094 L -12.479844 -48.335094 C -14.132187 -48.335094 -15.468125 -49.674938 -15.468125 -51.323375 L -15.468125 -62.358531 C -15.468125 -64.006969 -14.132187 -65.346812 -12.479844 -65.346812 L 12.481094 -65.346812 C 14.129531 -65.346812 15.469375 -64.006969 15.469375 -62.358531 L 15.469375 -51.323375 C 15.469375 -49.674938 14.129531 -48.335094 12.481094 -48.335094 Z M 12.481094 -48.335094 " transform="matrix(1, 0, 0, -1, 29.765, 21.286)"/>
<g fill="rgb(0%, 0%, 0%)" fill-opacity="1">
<use xlink:href="#glyph-1-9" x="20.273" y="80.578"/>
</g>
<g fill="rgb(0%, 0%, 0%)" fill-opacity="1">
<use xlink:href="#glyph-1-4" x="23.885856" y="80.578"/>
</g>
<g fill="rgb(0%, 0%, 0%)" fill-opacity="1">
<use xlink:href="#glyph-1-7" x="27.637668" y="80.578"/>
</g>
<g fill="rgb(0%, 0%, 0%)" fill-opacity="1">
<use xlink:href="#glyph-1-2" x="30.083294" y="80.578"/>
</g>
<g fill="rgb(0%, 0%, 0%)" fill-opacity="1">
<use xlink:href="#glyph-1-4" x="33.960166" y="80.578"/>
</g>
<g fill="rgb(0%, 0%, 0%)" fill-opacity="1">
<use xlink:href="#glyph-1-10" x="37.70503" y="80.578"/>
</g>
<path fill-rule="nonzero" fill="rgb(89.019775%, 94.900513%, 99.215698%)" fill-opacity="1" stroke-width="0.69739" stroke-linecap="butt" stroke-linejoin="miter" stroke="rgb(12.940979%, 58.822632%, 95.292664%)" stroke-opacity="1" stroke-miterlimit="10" d="M 62.7975 -48.335094 L 37.836563 -48.335094 C 36.184219 -48.335094 34.848281 -49.674938 34.848281 -51.323375 L 34.848281 -62.358531 C 34.848281 -64.006969 36.184219 -65.346812 37.836563 -65.346812 L 62.7975 -65.346812 C 64.445938 -65.346812 65.785781 -64.006969 65.785781 -62.358531 L 65.785781 -51.323375 C 65.785781 -49.674938 64.445938 -48.335094 62.7975 -48.335094 Z M 62.7975 -48.335094 " transform="matrix(1, 0, 0, -1, 29.765, 21.286)"/>
<g fill="rgb(0%, 0%, 0%)" fill-opacity="1">
<use xlink:href="#glyph-1-9" x="70.59" y="80.578"/>
</g>
<g fill="rgb(0%, 0%, 0%)" fill-opacity="1">
<use xlink:href="#glyph-1-4" x="74.202856" y="80.578"/>
</g>
<g fill="rgb(0%, 0%, 0%)" fill-opacity="1">
<use xlink:href="#glyph-1-7" x="77.954668" y="80.578"/>
</g>
<g fill="rgb(0%, 0%, 0%)" fill-opacity="1">
<use xlink:href="#glyph-1-2" x="80.400294" y="80.578"/>
</g>
<g fill="rgb(0%, 0%, 0%)" fill-opacity="1">
<use xlink:href="#glyph-1-4" x="84.277166" y="80.578"/>
</g>
<g fill="rgb(0%, 0%, 0%)" fill-opacity="1">
<use xlink:href="#glyph-1-10" x="88.02203" y="80.578"/>
</g>
<path fill-rule="nonzero" fill="rgb(89.019775%, 94.900513%, 99.215698%)" fill-opacity="1" stroke-width="0.69739" stroke-linecap="butt" stroke-linejoin="miter" stroke="rgb(12.940979%, 58.822632%, 95.292664%)" stroke-opacity="1" stroke-miterlimit="10" d="M 113.113906 -48.335094 L 88.152969 -48.335094 C 86.500625 -48.335094 85.164688 -49.674938 85.164688 -51.323375 L 85.164688 -62.358531 C 85.164688 -64.006969 86.500625 -65.346812 88.152969 -65.346812 L 113.113906 -65.346812 C 114.762344 -65.346812 116.102188 -64.006969 116.102188 -62.358531 L 116.102188 -51.323375 C 116.102188 -49.674938 114.762344 -48.335094 113.113906 -48.335094 Z M 113.113906 -48.335094 " transform="matrix(1, 0, 0, -1, 29.765, 21.286)"/>
<g fill="rgb(0%, 0%, 0%)" fill-opacity="1">
<use xlink:href="#glyph-1-9" x="120.906" y="80.578"/>
</g>
<g fill="rgb(0%, 0%, 0%)" fill-opacity="1">
<use xlink:href="#glyph-1-4" x="124.518856" y="80.578"/>
</g>
<g fill="rgb(0%, 0%, 0%)" fill-opacity="1">
<use xlink:href="#glyph-1-7" x="128.270668" y="80.578"/>
</g>
<g fill="rgb(0%, 0%, 0%)" fill-opacity="1">
<use xlink:href="#glyph-1-2" x="130.716294" y="80.578"/>
</g>
<g fill="rgb(0%, 0%, 0%)" fill-opacity="1">
<use xlink:href="#glyph-1-4" x="134.593166" y="80.578"/>
</g>
<g fill="rgb(0%, 0%, 0%)" fill-opacity="1">
<use xlink:href="#glyph-1-10" x="138.33803" y="80.578"/>
</g>
<path fill-rule="nonzero" fill="rgb(89.019775%, 94.900513%, 99.215698%)" fill-opacity="1" stroke-width="0.69739" stroke-linecap="butt" stroke-linejoin="miter" stroke="rgb(12.940979%, 58.822632%, 95.292664%)" stroke-opacity="1" stroke-miterlimit="10" d="M 163.430313 -48.335094 L 138.469375 -48.335094 C 136.817031 -48.335094 135.481094 -49.674938 135.481094 -51.323375 L 135.481094 -62.358531 C 135.481094 -64.006969 136.817031 -65.346812 138.469375 -65.346812 L 163.430313 -65.346812 C 165.07875 -65.346812 166.418594 -64.006969 166.418594 -62.358531 L 166.418594 -51.323375 C 166.418594 -49.674938 165.07875 -48.335094 163.430313 -48.335094 Z M 163.430313 -48.335094 " transform="matrix(1, 0, 0, -1, 29.765, 21.286)"/>
<g fill="rgb(0%, 0%, 0%)" fill-opacity="1">
<use xlink:href="#glyph-1-9" x="171.223" y="80.578"/>
</g>
<g fill="rgb(0%, 0%, 0%)" fill-opacity="1">
<use xlink:href="#glyph-1-4" x="174.835856" y="80.578"/>
</g>
<g fill="rgb(0%, 0%, 0%)" fill-opacity="1">
<use xlink:href="#glyph-1-7" x="178.587668" y="80.578"/>
</g>
<g fill="rgb(0%, 0%, 0%)" fill-opacity="1">
<use xlink:href="#glyph-1-2" x="181.033294" y="80.578"/>
</g>
<g fill="rgb(0%, 0%, 0%)" fill-opacity="1">
<use xlink:href="#glyph-1-4" x="184.910166" y="80.578"/>
</g>
<g fill="rgb(0%, 0%, 0%)" fill-opacity="1">
<use xlink:href="#glyph-1-10" x="188.65503" y="80.578"/>
</g>
<path fill="none" stroke-width="0.3985" stroke-linecap="butt" stroke-linejoin="miter" stroke="rgb(0%, 0%, 0%)" stroke-opacity="1" stroke-miterlimit="10" d="M 0.000625 -33.811656 L 0.000625 -44.921031 " transform="matrix(1, 0, 0, -1, 29.765, 21.286)"/>
<path fill-rule="nonzero" fill="rgb(0%, 0%, 0%)" fill-opacity="1" stroke-width="0.3985" stroke-linecap="butt" stroke-linejoin="miter" stroke="rgb(0%, 0%, 0%)" stroke-opacity="1" stroke-miterlimit="10" d="M 4.216521 0.000625 L 0.642302 1.344375 L 1.818084 0.000625 L 0.642302 -1.347031 Z M 4.216521 0.000625 " transform="matrix(0, 1, 1, 0, 29.765, 64.49051)"/>
<path fill="none" stroke-width="0.3985" stroke-linecap="butt" stroke-linejoin="miter" stroke="rgb(0%, 0%, 0%)" stroke-opacity="1" stroke-miterlimit="10" d="M 50.317031 -33.811656 L 50.317031 -44.921031 " transform="matrix(1, 0, 0, -1, 29.765, 21.286)"/>
<path fill-rule="nonzero" fill="rgb(0%, 0%, 0%)" fill-opacity="1" stroke-width="0.3985" stroke-linecap="butt" stroke-linejoin="miter" stroke="rgb(0%, 0%, 0%)" stroke-opacity="1" stroke-miterlimit="10" d="M 4.216521 0.00068125 L 0.642302 1.344431 L 1.818084 0.00068125 L 0.642302 -1.346975 Z M 4.216521 0.00068125 " transform="matrix(0, 1, 1, 0, 80.08135, 64.49051)"/>
<path fill="none" stroke-width="0.3985" stroke-linecap="butt" stroke-linejoin="miter" stroke="rgb(0%, 0%, 0%)" stroke-opacity="1" stroke-miterlimit="10" d="M 100.633438 -33.811656 L 100.633438 -44.921031 " transform="matrix(1, 0, 0, -1, 29.765, 21.286)"/>
<path fill-rule="nonzero" fill="rgb(0%, 0%, 0%)" fill-opacity="1" stroke-width="0.3985" stroke-linecap="butt" stroke-linejoin="miter" stroke="rgb(0%, 0%, 0%)" stroke-opacity="1" stroke-miterlimit="10" d="M 4.216521 0.0007375 L 0.642302 1.344488 L 1.818084 0.0007375 L 0.642302 -1.346919 Z M 4.216521 0.0007375 " transform="matrix(0, 1, 1, 0, 130.3977, 64.49051)"/>
<path fill="none" stroke-width="0.3985" stroke-linecap="butt" stroke-linejoin="miter" stroke="rgb(0%, 0%, 0%)" stroke-opacity="1" stroke-miterlimit="10" d="M 150.949844 -33.811656 L 150.949844 -44.921031 " transform="matrix(1, 0, 0, -1, 29.765, 21.286)"/>
<path fill-rule="nonzero" fill="rgb(0%, 0%, 0%)" fill-opacity="1" stroke-width="0.3985" stroke-linecap="butt" stroke-linejoin="miter" stroke="rgb(0%, 0%, 0%)" stroke-opacity="1" stroke-miterlimit="10" d="M 4.216521 0.00077375 L 0.642302 1.344524 L 1.818084 0.00077375 L 0.642302 -1.346882 Z M 4.216521 0.00077375 " transform="matrix(0, 1, 1, 0, 180.71407, 64.49051)"/>
<path fill-rule="nonzero" fill="rgb(100%, 95.292664%, 87.841797%)" fill-opacity="1" stroke-width="0.49814" stroke-linecap="butt" stroke-linejoin="miter" stroke="rgb(100%, 59.606934%, 0%)" stroke-opacity="1" stroke-miterlimit="10" d="M 4.160781 -77.284312 L -4.163437 -77.284312 C -5.811875 -77.284312 -7.151719 -78.62025 -7.151719 -80.272594 L -7.151719 -83.979625 C -7.151719 -85.631969 -5.811875 -86.967906 -4.163437 -86.967906 L 4.160781 -86.967906 C 5.813125 -86.967906 7.149063 -85.631969 7.149063 -83.979625 L 7.149063 -80.272594 C 7.149063 -78.62025 5.813125 -77.284312 4.160781 -77.284312 Z M 4.160781 -77.284312 " transform="matrix(1, 0, 0, -1, 29.765, 21.286)"/>
<g fill="rgb(0%, 0%, 0%)" fill-opacity="1">
<use xlink:href="#glyph-4-0" x="25.603" y="103.772"/>
</g>
<g fill="rgb(0%, 0%, 0%)" fill-opacity="1">
<use xlink:href="#glyph-3-0" x="30.038" y="105.266"/>
</g>
<path fill-rule="nonzero" fill="rgb(100%, 95.292664%, 87.841797%)" fill-opacity="1" stroke-width="0.49814" stroke-linecap="butt" stroke-linejoin="miter" stroke="rgb(100%, 59.606934%, 0%)" stroke-opacity="1" stroke-miterlimit="10" d="M 54.477188 -77.284312 L 46.152969 -77.284312 C 44.504531 -77.284312 43.164688 -78.62025 43.164688 -80.272594 L 43.164688 -83.979625 C 43.164688 -85.631969 44.504531 -86.967906 46.152969 -86.967906 L 54.477188 -86.967906 C 56.129531 -86.967906 57.465469 -85.631969 57.465469 -83.979625 L 57.465469 -80.272594 C 57.465469 -78.62025 56.129531 -77.284312 54.477188 -77.284312 Z M 54.477188 -77.284312 " transform="matrix(1, 0, 0, -1, 29.765, 21.286)"/>
<g fill="rgb(0%, 0%, 0%)" fill-opacity="1">
<use xlink:href="#glyph-4-0" x="75.92" y="103.772"/>
</g>
<g fill="rgb(0%, 0%, 0%)" fill-opacity="1">
<use xlink:href="#glyph-3-1" x="80.355" y="105.266"/>
</g>
<path fill-rule="nonzero" fill="rgb(100%, 95.292664%, 87.841797%)" fill-opacity="1" stroke-width="0.49814" stroke-linecap="butt" stroke-linejoin="miter" stroke="rgb(100%, 59.606934%, 0%)" stroke-opacity="1" stroke-miterlimit="10" d="M 104.793594 -77.284312 L 96.469375 -77.284312 C 94.820938 -77.284312 93.481094 -78.62025 93.481094 -80.272594 L 93.481094 -83.979625 C 93.481094 -85.631969 94.820938 -86.967906 96.469375 -86.967906 L 104.793594 -86.967906 C 106.445938 -86.967906 107.781875 -85.631969 107.781875 -83.979625 L 107.781875 -80.272594 C 107.781875 -78.62025 106.445938 -77.284312 104.793594 -77.284312 Z M 104.793594 -77.284312 " transform="matrix(1, 0, 0, -1, 29.765, 21.286)"/>
<g fill="rgb(0%, 0%, 0%)" fill-opacity="1">
<use xlink:href="#glyph-4-0" x="126.236" y="103.772"/>
</g>
<g fill="rgb(0%, 0%, 0%)" fill-opacity="1">
<use xlink:href="#glyph-3-2" x="130.671" y="105.266"/>
</g>
<path fill-rule="nonzero" fill="rgb(100%, 95.292664%, 87.841797%)" fill-opacity="1" stroke-width="0.49814" stroke-linecap="butt" stroke-linejoin="miter" stroke="rgb(100%, 59.606934%, 0%)" stroke-opacity="1" stroke-miterlimit="10" d="M 155.11 -77.284312 L 146.785781 -77.284312 C 145.137344 -77.284312 143.7975 -78.62025 143.7975 -80.272594 L 143.7975 -83.979625 C 143.7975 -85.631969 145.137344 -86.967906 146.785781 -86.967906 L 155.11 -86.967906 C 156.762344 -86.967906 158.098281 -85.631969 158.098281 -83.979625 L 158.098281 -80.272594 C 158.098281 -78.62025 156.762344 -77.284312 155.11 -77.284312 Z M 155.11 -77.284312 " transform="matrix(1, 0, 0, -1, 29.765, 21.286)"/>
<g fill="rgb(0%, 0%, 0%)" fill-opacity="1">
<use xlink:href="#glyph-4-0" x="176.553" y="103.772"/>
</g>
<g fill="rgb(0%, 0%, 0%)" fill-opacity="1">
<use xlink:href="#glyph-3-3" x="180.988" y="105.266"/>
</g>
<path fill="none" stroke-width="0.3985" stroke-linecap="butt" stroke-linejoin="miter" stroke="rgb(100%, 59.599304%, 0%)" stroke-opacity="1" stroke-dasharray="2.98883 2.98883" stroke-miterlimit="10" d="M 0.000625 -65.694469 L 0.000625 -73.971812 " transform="matrix(1, 0, 0, -1, 29.765, 21.286)"/>
<path fill-rule="nonzero" fill="rgb(100%, 59.599304%, 0%)" fill-opacity="1" stroke-width="0.3985" stroke-linecap="butt" stroke-linejoin="miter" stroke="rgb(100%, 59.599304%, 0%)" stroke-opacity="1" stroke-miterlimit="10" d="M 4.216056 0.000625 L 0.641838 1.344375 L 1.817619 0.000625 L 0.641838 -1.347031 Z M 4.216056 0.000625 " transform="matrix(0, 1, 1, 0, 29.765, 93.53785)"/>
<path fill="none" stroke-width="0.3985" stroke-linecap="butt" stroke-linejoin="miter" stroke="rgb(100%, 59.599304%, 0%)" stroke-opacity="1" stroke-dasharray="2.98883 2.98883" stroke-miterlimit="10" d="M 50.317031 -65.694469 L 50.317031 -73.971812 " transform="matrix(1, 0, 0, -1, 29.765, 21.286)"/>
<path fill-rule="nonzero" fill="rgb(100%, 59.599304%, 0%)" fill-opacity="1" stroke-width="0.3985" stroke-linecap="butt" stroke-linejoin="miter" stroke="rgb(100%, 59.599304%, 0%)" stroke-opacity="1" stroke-miterlimit="10" d="M 4.216056 0.00068125 L 0.641838 1.344431 L 1.817619 0.00068125 L 0.641838 -1.346975 Z M 4.216056 0.00068125 " transform="matrix(0, 1, 1, 0, 80.08135, 93.53785)"/>
<path fill="none" stroke-width="0.3985" stroke-linecap="butt" stroke-linejoin="miter" stroke="rgb(100%, 59.599304%, 0%)" stroke-opacity="1" stroke-dasharray="2.98883 2.98883" stroke-miterlimit="10" d="M 100.633438 -65.694469 L 100.633438 -73.971812 " transform="matrix(1, 0, 0, -1, 29.765, 21.286)"/>
<path fill-rule="nonzero" fill="rgb(100%, 59.599304%, 0%)" fill-opacity="1" stroke-width="0.3985" stroke-linecap="butt" stroke-linejoin="miter" stroke="rgb(100%, 59.599304%, 0%)" stroke-opacity="1" stroke-miterlimit="10" d="M 4.216056 0.0007375 L 0.641838 1.344488 L 1.817619 0.0007375 L 0.641838 -1.346919 Z M 4.216056 0.0007375 " transform="matrix(0, 1, 1, 0, 130.3977, 93.53785)"/>
<path fill="none" stroke-width="0.3985" stroke-linecap="butt" stroke-linejoin="miter" stroke="rgb(100%, 59.599304%, 0%)" stroke-opacity="1" stroke-dasharray="2.98883 2.98883" stroke-miterlimit="10" d="M 150.949844 -65.694469 L 150.949844 -73.971812 " transform="matrix(1, 0, 0, -1, 29.765, 21.286)"/>
<path fill-rule="nonzero" fill="rgb(100%, 59.599304%, 0%)" fill-opacity="1" stroke-width="0.3985" stroke-linecap="butt" stroke-linejoin="miter" stroke="rgb(100%, 59.599304%, 0%)" stroke-opacity="1" stroke-miterlimit="10" d="M 4.216056 0.00077375 L 0.641838 1.344524 L 1.817619 0.00077375 L 0.641838 -1.346882 Z M 4.216056 0.00077375 " transform="matrix(0, 1, 1, 0, 180.71407, 93.53785)"/>
</svg>
